<?xml version="1.0" encoding="UTF-8"?>
<svg id="Layer_1" data-name="Layer 1" xmlns="http://www.w3.org/2000/svg" viewBox="0 0 65 62.62">
  <defs>
    <style>
      .cls-1 {
        fill: #fff;
        fill-rule: evenodd;
      }
    </style>
  </defs>
  <path class="cls-1" d="M0,33.71c-.03.56.05,1.24.2,2.59l1.27,10.87c.57,4.91,3.19,9.34,7.22,12.21,2.96,2.11,6.51,3.25,10.15,3.25h11.46c3.64,0,7.19-1.14,10.15-3.25,2.55-1.82,4.53-4.26,5.79-7.06h6.86c6.57,0,11.89-5.32,11.89-11.89s-5.32-11.89-11.89-11.89h-7.22c-.6-.33-1.26-.57-1.96-.69-.55-.1-1.23-.1-2.6-.1H7.82c-1.36,0-2.05,0-2.6.1C2.34,28.35.18,30.78,0,33.71ZM49.11,33.29c.02.14.03.28.04.42.03.56-.05,1.24-.2,2.59l-1.27,10.87c-.02.13-.03.26-.05.39h5.49c3.94,0,7.13-3.19,7.13-7.13s-3.19-7.13-7.13-7.13h-4Z"/>
  <path class="cls-1" d="M26.26.7c.93.93.93,2.43,0,3.36-.82.82-.82,2.16,0,2.98,2.68,2.68,2.68,7.02,0,9.7-.93.93-2.43.93-3.36,0-.93-.93-.93-2.43,0-3.36.82-.82.82-2.16,0-2.98-2.68-2.68-2.68-7.02,0-9.7.93-.93,2.43-.93,3.36,0Z"/>
  <path class="cls-1" d="M11.99,5.45c.93.93.93,2.43,0,3.36l-.37.37c-.77.77-.86,1.99-.2,2.86,2.07,2.77,1.8,6.64-.65,9.08l-.37.37c-.93.93-2.43.93-3.36,0-.93-.93-.93-2.43,0-3.36l.37-.37c.77-.77.86-1.99.2-2.86-2.07-2.77-1.8-6.64.65-9.08l.37-.37c.93-.93,2.43-.93,3.36,0Z"/>
  <path class="cls-1" d="M42.11,5.45c.93.93.93,2.43,0,3.36l-.37.37c-.77.77-.86,1.99-.2,2.86,2.07,2.77,1.8,6.64-.65,9.08l-.37.37c-.93.93-2.43.93-3.36,0-.93-.93-.93-2.43,0-3.36l.37-.37c.77-.77.86-1.99.2-2.86-2.07-2.77-1.8-6.64.65-9.08l.37-.37c.93-.93,2.43-.93,3.36,0Z"/>
</svg>