<?xml version="1.0" encoding="UTF-8"?>
<svg id="Layer_2" data-name="Layer 2" xmlns="http://www.w3.org/2000/svg" viewBox="0 0 34.99 48.86">
  <defs>
    <style>
      .cls-1 {
        fill: #fff;
      }
    </style>
  </defs>
  <g id="Layer_1-2" data-name="Layer 1">
    <g>
      <g>
        <rect class="cls-1" x="6.97" y="39.59" width="21.07" height="1.96" rx=".98" ry=".98"/>
        <rect class="cls-1" x="6.97" y="35.57" width="21.07" height="1.96" rx=".98" ry=".98"/>
        <rect class="cls-1" x="6.97" y="31.55" width="21.07" height="1.96" rx=".98" ry=".98"/>
        <path class="cls-1" d="M32.09,5.83h-6.61v-1.4c0-.49-.4-.89-.89-.89h-2.75c-.41-2.02-2.2-3.54-4.34-3.54s-3.93,1.52-4.34,3.54h-2.75c-.49,0-.89.4-.89.89v1.4H2.9c-1.6,0-2.9,1.3-2.9,2.9v37.23c0,1.6,1.3,2.9,2.9,2.9h29.24c1.57,0,2.85-1.27,2.85-2.85V8.73c0-1.6-1.3-2.9-2.9-2.9ZM11.29,5.32h2.65c.47,0,.91-.38.9-.85-.03-2.05,2.27-3.58,4.43-2.12.66.45.92,1.24.89,2.04-.02.5.39.93.89.93h2.65v2.66c0,.48-.39.88-.88.88h-10.64c-.49,0-.89-.4-.89-.88v-2.66ZM32.04,47.06H2.9c-.6,0-1.1-.49-1.1-1.1V8.73c0-.61.5-1.1,1.1-1.1h6.62v.35c0,1.46,1.19,2.65,2.66,2.65h10.65c1.46,0,2.65-1.19,2.65-2.65v-.35h6.61c.61,0,1.11.5,1.11,1.11v37.16c0,.64-.52,1.16-1.16,1.16Z"/>
      </g>
      <path class="cls-1" d="M17.5,13.64c-3.95,0-7.15,3.2-7.15,7.15s3.2,7.15,7.15,7.15,7.15-3.2,7.15-7.15-3.2-7.15-7.15-7.15ZM22.45,18.88l-6.82,5.98-3.03-3.03c-.29-.29-.29-.77,0-1.06.29-.29.77-.29,1.06,0l2.04,2.03,5.77-5.05c.31-.27.78-.24,1.06.07.27.32.24.79-.08,1.06Z"/>
    </g>
  </g>
</svg>