<?xml version="1.0" encoding="UTF-8"?>
<svg id="Layer_2" data-name="Layer 2" xmlns="http://www.w3.org/2000/svg" viewBox="0 0 32.53 29.15">
  <defs>
    <style>
      .cls-1 {
        fill: #fff;
      }
    </style>
  </defs>
  <g id="Layer_1-2" data-name="Layer 1">
    <g>
      <g id="icons">
        <g>
          <path class="cls-1" d="M28.38,2.23v1.12c0,1.43-1.17,2.57-2.57,2.57s-2.6-1.14-2.6-2.57v-1.12h-4.37v1.12c0,1.43-1.14,2.57-2.57,2.57s-2.6-1.14-2.6-2.57v-1.12h-4.37v1.12c0,1.43-1.17,2.57-2.57,2.57s-2.57-1.14-2.57-2.57v-1.12H0v23.5c0,1.89,1.51,3.42,3.35,3.42h25.78c1.87,0,3.39-1.52,3.39-3.39V2.23h-4.15ZM30.71,25.7c0,.91-.74,1.65-1.65,1.65H3.35c-.85,0-1.55-.73-1.55-1.63V8.06h28.91v17.65Z"/>
          <path class="cls-1" d="M16.26,5.04c.93,0,1.68-.75,1.68-1.68v-1.68c0-.93-.75-1.68-1.68-1.68s-1.68.75-1.68,1.68v1.68c0,.93.75,1.68,1.68,1.68Z"/>
          <path class="cls-1" d="M6.72,5.04c.93,0,1.68-.75,1.68-1.68v-1.68c0-.93-.75-1.68-1.68-1.68s-1.68.75-1.68,1.68v1.68c0,.93.75,1.68,1.68,1.68Z"/>
          <path class="cls-1" d="M25.79,5.04c.93,0,1.68-.75,1.68-1.68v-1.68c0-.93-.75-1.68-1.68-1.68s-1.68.75-1.68,1.68v1.68c0,.93.75,1.68,1.68,1.68Z"/>
        </g>
      </g>
      <g>
        <rect class="cls-1" x="11.36" y="10.62" width="3.27" height="3.27"/>
        <rect class="cls-1" x="17.9" y="10.62" width="3.27" height="3.27"/>
        <path class="cls-1" d="M27.22,11.12v2.27h-2.27v-2.27h2.27M27.72,10.62h-3.27v3.27h3.27v-3.27h0Z"/>
        <rect class="cls-1" x="4.81" y="16.03" width="3.27" height="3.27"/>
        <rect class="cls-1" x="11.35" y="16.03" width="3.27" height="3.27"/>
        <rect class="cls-1" x="17.9" y="16.03" width="3.27" height="3.27"/>
        <path class="cls-1" d="M27.22,16.53v2.27h-2.27v-2.27h2.27M27.72,16.03h-3.27v3.27h3.27v-3.27h0Z"/>
        <path class="cls-1" d="M27.22,21.93v2.27h-2.27v-2.27h2.27M27.72,21.43h-3.27v3.27h3.27v-3.27h0Z"/>
        <rect class="cls-1" x="4.81" y="10.62" width="3.27" height="3.27"/>
        <rect class="cls-1" x="17.9" y="21.43" width="3.27" height="3.27"/>
        <rect class="cls-1" x="4.81" y="21.43" width="3.27" height="3.27"/>
        <rect class="cls-1" x="11.35" y="21.43" width="3.27" height="3.27"/>
      </g>
    </g>
  </g>
</svg>