<?xml version="1.0" encoding="UTF-8"?>
<svg id="Layer_1" xmlns="http://www.w3.org/2000/svg" version="1.1" viewBox="0 0 15.7 15.8">
  <!-- Generator: Adobe Illustrator 29.6.1, SVG Export Plug-In . SVG Version: 2.1.1 Build 9)  -->
  <defs>
    <style>
      .st0 {
        fill: #8c001a;
      }
    </style>
  </defs>
  <path class="st0" d="M5.5.8v.8h4.7v-.8C10.2.4,10.6,0,11,0h0c.4,0,.8.4.8.8v.8h3.1c.4,0,.8.4.8.8v12.6c0,.4-.4.8-.8.8H.8c-.4-.1-.8-.5-.8-.9V2.4c0-.5.4-.8.8-.8h3.1v-.8C3.9.4,4.3,0,4.7,0h0c.4,0,.8.4.8.8ZM14.1,7.8H1.6v6.3h12.6v-6.3h-.1ZM4.7,10.2h0c0,.4-.4.8-.8.8h0c-.4,0-.8-.4-.8-.8h0c0-.4.4-.8.8-.8h0c.4,0,.8.4.8.8ZM8.6,10.2h0c0,.4-.4.8-.8.8h0c-.4,0-.8-.4-.8-.8h0c0-.4.4-.8.8-.8h0c.4,0,.8.4.8.8ZM12.6,10.2h0c0,.4-.4.8-.8.8h0c-.4,0-.8-.4-.8-.8h0c0-.4.4-.8.8-.8h0c.4,0,.8.4.8.8ZM1.6,3.1v3.1h12.6v-3.1H1.6Z"/>
</svg>