<?xml version="1.0" encoding="UTF-8"?>
<svg id="Layer_2" data-name="Layer 2" xmlns="http://www.w3.org/2000/svg" viewBox="0 0 29.76 22.52">
  <defs>
    <style>
      .cls-1, .cls-2 {
        fill: #fff;
      }

      .cls-2 {
        fill-rule: evenodd;
      }
    </style>
  </defs>
  <g id="Layer_1-2" data-name="Layer 1">
    <g>
      <g>
        <path class="cls-2" d="M8.67,13.02C3.97,13.02,0,15.58,0,18.6c0,3.92,6.53,3.92,8.67,3.92,3.72,0,8.68-.4,8.68-3.89,0-3.04-3.97-5.61-8.68-5.61Z"/>
        <path class="cls-2" d="M8.67,11.55h.04c1.54,0,2.98-.61,4.06-1.7,1.08-1.09,1.68-2.54,1.67-4.07,0-3.18-2.59-5.77-5.77-5.77S2.9,2.59,2.9,5.77s2.59,5.77,5.77,5.77Z"/>
      </g>
      <path class="cls-1" d="M28.76,9.44h-4.37v-4.37c0-.55-.45-1-1-1s-1,.45-1,1v4.37h-4.37c-.55,0-1,.45-1,1s.45,1,1,1h4.37v4.37c0,.55.45,1,1,1s1-.45,1-1v-4.37h4.37c.55,0,1-.45,1-1s-.45-1-1-1Z"/>
    </g>
  </g>
</svg>