<?xml version="1.0" encoding="UTF-8"?>
<svg id="Layer_2" data-name="Layer 2" xmlns="http://www.w3.org/2000/svg" viewBox="0 0 66.53 52.11">
  <defs>
    <style>
      .cls-1 {
        fill: #fff;
      }
    </style>
  </defs>
  <g id="Layer_1-2" data-name="Layer 1">
    <g>
      <path class="cls-1" d="M36.27,46.69H4.67c-1.28,0-2.33-1.05-2.33-2.33V4.67c0-1.28,1.05-2.33,2.33-2.33h57.19c1.28,0,2.33,1.05,2.33,2.33v26.84c0,.64.53,1.17,1.17,1.17s1.17-.53,1.17-1.17V4.67c0-2.58-2.09-4.67-4.67-4.67H4.67C2.09,0,0,2.09,0,4.67v39.68c0,2.58,2.09,4.67,4.67,4.67h31.6c.64,0,1.17-.53,1.17-1.17s-.53-1.17-1.17-1.17Z"/>
      <path class="cls-1" d="M51.78,27.46v6.61c2.59.36,4.63,2.46,4.9,5.09h6.6c-.3-6.25-5.27-11.3-11.5-11.7Z"/>
      <path class="cls-1" d="M55.47,43.35l4.66,4.67c.95-1.05,1.7-2.24,2.23-3.52.48-1.17.78-2.41.89-3.69h-6.63c-.17.93-.57,1.8-1.16,2.54h0Z"/>
      <path class="cls-1" d="M50.96,45.52c-3.17,0-5.75-2.58-5.75-5.76,0-2.89,2.14-5.3,4.92-5.69v-6.61c-6.42.43-11.5,5.78-11.5,12.31s5.53,12.34,12.33,12.34c2.96,0,5.75-1.04,7.99-2.95l-4.67-4.68c-.96.68-2.11,1.05-3.31,1.05h0Z"/>
      <path class="cls-1" d="M36.18,18.67c0-.62-.18-1.2-.47-1.7l3.84-4.39c.4.16.83.26,1.28.26s.89-.09,1.28-.26l3.84,4.39c-.28.5-.47,1.09-.47,1.7,0,1.93,1.58,3.5,3.5,3.5s3.5-1.58,3.5-3.5c0-.62-.18-1.2-.47-1.7l3.84-4.39c.4.16.83.26,1.28.26,1.93,0,3.5-1.58,3.5-3.5s-1.58-3.5-3.5-3.5-3.5,1.58-3.5,3.5c0,.62.18,1.2.47,1.7l-3.84,4.39c-.4-.16-.83-.26-1.28-.26s-.89.09-1.28.26l-3.84-4.39c.28-.5.47-1.09.47-1.7,0-1.93-1.58-3.5-3.5-3.5s-3.5,1.58-3.5,3.5c0,.62.18,1.2.47,1.7l-3.84,4.39c-.4-.16-.83-.26-1.28-.26-1.93,0-3.5,1.58-3.5,3.5s1.58,3.5,3.5,3.5,3.5-1.58,3.5-3.5Z"/>
      <rect class="cls-1" x="5.84" y="28.01" width="7" height="15.17" rx="1.17" ry="1.17"/>
      <rect class="cls-1" x="15.17" y="23.34" width="7" height="19.84" rx="1.17" ry="1.17"/>
      <rect class="cls-1" x="24.51" y="31.51" width="7" height="11.67" rx="1.17" ry="1.17"/>
      <path class="cls-1" d="M7,8.17h2.33c.64,0,1.17-.53,1.17-1.17s-.53-1.17-1.17-1.17h-2.33c-.64,0-1.17.53-1.17,1.17s.53,1.17,1.17,1.17Z"/>
      <path class="cls-1" d="M14.01,8.17h9.34c.64,0,1.17-.53,1.17-1.17s-.53-1.17-1.17-1.17h-9.34c-.64,0-1.17.53-1.17,1.17s.53,1.17,1.17,1.17Z"/>
      <path class="cls-1" d="M7,14.01h2.33c.64,0,1.17-.53,1.17-1.17s-.53-1.17-1.17-1.17h-2.33c-.64,0-1.17.53-1.17,1.17s.53,1.17,1.17,1.17Z"/>
      <path class="cls-1" d="M14.01,14.01h9.34c.64,0,1.17-.53,1.17-1.17s-.53-1.17-1.17-1.17h-9.34c-.64,0-1.17.53-1.17,1.17s.53,1.17,1.17,1.17Z"/>
      <path class="cls-1" d="M7,19.84h2.33c.64,0,1.17-.53,1.17-1.17s-.53-1.17-1.17-1.17h-2.33c-.64,0-1.17.53-1.17,1.17s.53,1.17,1.17,1.17Z"/>
      <path class="cls-1" d="M24.51,18.67c0-.64-.53-1.17-1.17-1.17h-9.34c-.64,0-1.17.53-1.17,1.17s.53,1.17,1.17,1.17h9.34c.64,0,1.17-.53,1.17-1.17Z"/>
    </g>
  </g>
</svg>