<?xml version="1.0" encoding="UTF-8"?>
<svg id="Layer_2" data-name="Layer 2" xmlns="http://www.w3.org/2000/svg" viewBox="0 0 11.49 13.09">
  <defs>
    <style>
      .cls-1 {
        fill: #921a1e;
      }
    </style>
  </defs>
  <g id="Layer_1-2" data-name="Layer 1">
    <g id="module_header" data-name="module header">
      <g>
        <rect class="cls-1" x="0" y="2.22" width="11.49" height=".93" rx=".47" ry=".47"/>
        <path class="cls-1" d="M9.97,13.09H1.52c-.1,0-.19-.08-.19-.19V2.87c0-.1.08-.19.19-.19h.56c.1,0,.19.08.19.19v9.1c0,.1.08.19.19.19h6.58c.1,0,.19-.08.19-.19V2.87c0-.1.08-.19.19-.19h.56c.1,0,.19.08.19.19v10.03c0,.1-.08.19-.19.19h0Z"/>
        <path class="cls-1" d="M7.92,2.69h-.56c-.1,0-.19-.08-.19-.19v-1.38c0-.1-.08-.19-.19-.19h-2.65c-.1,0-.19.08-.19.19v1.38c0,.1-.08.19-.19.19h-.56c-.1,0-.19-.08-.19-.19V.19c0-.1.08-.19.19-.19h4.52c.1,0,.19.08.19.19v2.31c0,.1-.08.19-.19.19Z"/>
        <path class="cls-1" d="M3.95,4.47h0c.26,0,.47.21.47.47v5.43c0,.26-.21.47-.47.47h0c-.26,0-.47-.21-.47-.47v-5.43c0-.26.21-.47.47-.47Z"/>
        <path class="cls-1" d="M5.66,4.47h0c.26,0,.47.21.47.47v5.43c0,.26-.21.47-.47.47h0c-.26,0-.47-.21-.47-.47v-5.43c0-.26.21-.47.47-.47Z"/>
        <path class="cls-1" d="M7.38,4.47h0c.26,0,.47.21.47.47v5.43c0,.26-.21.47-.47.47h0c-.26,0-.47-.21-.47-.47v-5.43c0-.26.21-.47.47-.47Z"/>
      </g>
    </g>
  </g>
</svg>