<?xml version="1.0" encoding="UTF-8"?>
<svg id="Layer_1" xmlns="http://www.w3.org/2000/svg" version="1.1" viewBox="0 0 38.2 38.2">
  <!-- Generator: Adobe Illustrator 29.6.1, SVG Export Plug-In . SVG Version: 2.1.1 Build 9)  -->
  <defs>
    <style>
      .st0 {
        fill: #93001a;
      }
    </style>
  </defs>
  <path class="st0" d="M19.1,38.2C8.6,38.2,0,29.7,0,19.1S8.6,0,19.1,0s19.1,8.6,19.1,19.1-8.6,19.1-19.1,19.1ZM19.1,2C9.7,2,2,9.7,2,19.1s7.7,17.1,17.1,17.1,17.1-7.7,17.1-17.1S28.6,2,19.1,2Z"/>
  <path class="st0" d="M15.7,28.1v-1c1.7-.2,1.9-.3,1.9-2.4v-6c0-2-.1-2.1-1.7-2.3v-.9c1.8-.2,3.5-.6,5-1.1v10.3c0,2,.1,2.2,2,2.4v1s-7.2,0-7.2,0ZM19.1,12.3c-1,0-2-.9-2-1.9s.9-2,2-2,1.9.8,1.9,2-.9,1.9-2,1.9Z"/>
</svg>