<?xml version="1.0" encoding="UTF-8"?>
<svg id="Layer_1" data-name="Layer 1" xmlns="http://www.w3.org/2000/svg" viewBox="0 0 440.75 179.88">
  <defs>
    <style>
      .cls-1 {
        fill: #fcfafb;
      }

      .cls-2 {
        fill: #fdfbfc;
      }

      .cls-3 {
        fill: #fff;
      }

      .cls-4 {
        fill: #fbf8f9;
      }

      .cls-5 {
        fill: #9e1c33;
      }

      .cls-6 {
        fill: #fefdfd;
      }

      .cls-7 {
        fill: #fbf7f8;
      }
    </style>
  </defs>
  <polygon class="cls-3" points="44.54 90.77 86.23 90.77 85.89 152.25 73.89 162.46 66.18 177.55 65.1 179.88 63.6 177.14 58.65 162.23 52.51 152.72 47.6 103.34 44.54 90.77"/>
  <path class="cls-6" d="M66.05,169.68c0,2.61-.12,5.27.13,7.87,17.44-25.64,39.85-47.53,63.61-67.3l.41-1.24-6.95-92.44-14.7-7.32c-10.39,1.32-34.09,4.18-41.09-5.34-.88-1.19-1.38-2.61-2.09-3.89-.71,0-1.43,2.19-1.82,2.8-3.21,5.11-9.32,6.8-15.06,7.48-8.76,1.04-18.13.05-26.84-1.05l-14.79,7.1L0,108.73l.28,1.38c24.15,19.1,46.69,40.96,63.33,67.04.42.37.27-.27.27-.54.07-2.3,0-4.62,0-6.93.07-18.05-.05-36.1,0-54.15-.27-1.38-5.26-2.5-6.64-2.59-2.81-.18-4.92.5-6.94,2.45l-1.65-19.37c5.31-2,13.2-2.53,16.18,3.35,3.29-6.07,10.77-5.07,16.43-3.52l-1.66,19.09-.37.44c-3.32-3.9-9.24-2.57-13.19-.36.06,18.22-.04,36.44.01,54.66Z"/>
  <path class="cls-3" d="M348.23,49.41h15.9c.22-1.69-1.91-.94-3.11-1.1-2.83-.38-1.93-4.02-2.04-6.1-.04-.64-.27-1.24-.29-1.88-.29-8.08.24-16.23,0-24.31,2.56.26,5.52.03,8.01.28,1.12.11,2.89.63,3.53,1.64.46.73.3,2.6,1.09,2.43.67-.14.39-3.68.41-4.48.03-1,.64-2.01-.04-3.09-7.77.51-15.67.8-23.48.52-.64-.02-1.24-.26-1.88-.29-2.26-.12-4.32.25-6.54-.55l-.38.04c-.49,2.41-1.23,4.82-1.11,7.31,1.32.2,1.15-1.45,1.9-2.31.68-.79,2.12-1.12,3.13-1.22,2.78-.27,5.98.13,8.83-.28-.17,7.37.22,14.77,0,22.14-.06,2.22-.07,5.46-.31,7.56-.36,3.06-1.53,2.38-4.04,2.88-.14.2.2.75.41.81Z"/>
  <path class="cls-3" d="M232.07,49.41h15.9c.14,0,.56-.59.41-.81-1.91-.69-4.22.52-5.09-1.84-.63-1.71-.52-9.18-.36-11.34.2-2.7,1.92-5.29,3.23-7.64,1.92-3.46,6.62-12.2,10.1-13.53.79-.3,2.41-.06,2.44-1.22h-11.68c-.44,1.3,1.31.71,1.59,1.53l-.15,1.95-7.56,14.16-8.71-15.47c-.13-.27-.2-.56,0-.83.09-.13,3.64-1.61.85-1.57-3.86.06-7.78.02-11.65.06-1.06,0-1.52.53-.38,1.05.96.44,1.66.21,2.78,1.02,2.37,1.72,9.73,13.91,11.23,17.01,1.4,2.9,1.61,11.05,1.07,14.27-.43,2.55-1.86,1.88-3.85,2.35l-.16.84Z"/>
  <path class="cls-3" d="M417.38,13.04l-16.29.02-.02.79c2.57.11,4.36.17,4.63,3.11.86,9.13-.4,20.02-.35,29.27-.51,2.4-1.69,1.87-3.75,2.23-.27.25-.38.35-.13.69.41.56,6.46.27,7.58.02,5.15-.08,12.15.93,17.16.26,2.34-.31,1.94-6.03,2.02-7.89l-.95.27c-.36,2.73-1.55,4.26-4.38,4.59-1.82.21-8.31.28-9.47-1.07-.65-.75-.91-3.63-.97-4.73-.38-6.38-.56-17.08.05-23.32.12-1.25.17-2.69,1.53-3.09.43-.13,3.98-.23,3.33-1.15Z"/>
  <path class="cls-3" d="M293.89,13.03h-19.7c-.23,1.57,1.51.96,2.52,1.15,1.21.23,2.34.89,2.38,2.24-.54,9.28.71,19.32-.01,28.51-.24,3.1-.37,3.07-3.13,3.38-1.43.16-1.38,1.29.24,1.27,5.04-.08,10.09-.29,15.13-.17.1-1.99-2.97-.53-4.43-1.61-.68-.5-.96-4.03-1.01-5.03-.49-8.82.29-18.18.13-27.04,11.85-3.16,14.53,15.91,2.32,16.44-1.02,1.1.84,1.27,1.77,1.25,14.09-.27,17.86-18.9,3.8-20.38Z"/>
  <path class="cls-3" d="M393.74,14.12c.11-.87-.14-1.01-.94-1.1-2.72-.31-10.35-.32-13.07,0-.74.09-1.26.33-.8,1.1,1.58-.08,3.62.16,3.92,2.05-.49,9.37.71,19.49.03,28.77-.25,3.45-.87,3.22-4.08,3.67v.79s16.29,0,16.29,0c0-2.17-3.33-.27-4.63-1.75-.48-.55-.76-3.2-.81-4.07-.45-7.01-.63-19.16.05-26.04.29-2.93,1-3.5,4.04-3.43Z"/>
  <path class="cls-3" d="M217.94,55.38h-4.89c-.17.78.6.5.89,1.14.4.89.29,5.27-.09,6.26-.12.32-.76.01-.53.74h4.48l.36-.45.04-1.45c-.56.25-.42.89-1.29,1.04-.36.06-1.35-.04-1.44-.41v-2.53s1.9.02,1.9.02l.28.79c.89-2.74-.21-1.78-2.17-1.63v-2.29c.03-.27,1.46-.22,1.73-.12.48.17.25.83.71.78v-1.9Z"/>
  <path class="cls-3" d="M233.16,55.38h-4.89l.84,1.21-.02,5.72-.82,1.21h4.89l.27-1.63c-.75-.21-.41.44-.87.63-2.09.88-2.37-1.19-2.12-2.81.55.06,1.21-.1,1.73,0,.22.04.15,1.04.72.41v-1.49s-2.32.01-2.32.01l-.12-2.19c.53.05,1.25-.13,1.74.04s.25.83.71.78l.28-1.9Z"/>
  <path class="cls-3" d="M245.11,55.39c-.65-.08-.43-.01-.57.37-.65,1.83-.4,5.28-1.11,6.77-.26.55-.95.23-.76.99h2.44s-.56-.93-.56-.93l.43-3.96,2.45,4.62c.57.14,1.83-3.36,2.24-3.99.17-.27-.03-.49.61-.35l.27,4.62h2.72c.09-.95-.87-.24-1.24-1.34-.34-1.03-.72-6.54-.94-6.8-.49-.1-.54.13-.75.47-.74,1.18-1.34,3.09-2.11,4.42-.17.29.03.66-.54.54l-2.59-5.43Z"/>
  <path class="cls-3" d="M267.39,55.38h-4.89c-.26.71.82.75.82.81v6.79h-.82s0,.54,0,.54h4.89v-1.36c-.81.54-1.51.73-2.41.23l-.04-2.68c.45.04,1.05-.11,1.46.03.45.16.35,1.08.71.64v-1.77s-2.18,0-2.18,0v-2.17c.55.06,1.22-.11,1.73,0,.28.06-.01.81.72.55v-1.63Z"/>
  <path class="cls-3" d="M326.36,55.38h-6.79v1.63c.82-.74,1.69-.56,2.72-.54v6.11c0,.29-1.11.24-.81.95h3.26c.24-.87-1.09-.28-1.09-1.22v-5.84c.6.08,1.47-.15,2.01.03.48.17.25.83.71.78v-1.9Z"/>
  <path class="cls-3" d="M398.63,55.38h-4.89c-.26.71.82.75.82.81v6.79h-.82s0,.54,0,.54h4.76l.36-.45.04-1.45c-.56.25-.42.89-1.29,1.04-.36.06-1.35-.04-1.44-.41v-2.53c.46.04,1.06-.11,1.47.03.48.17.25.83.71.78l.28-1.76-2.45-.14v-2.02c.03-.25,1.45-.22,1.73-.16s-.01.81.72.55v-1.63Z"/>
  <path class="cls-3" d="M220.93,92.3h7.88c.19-1-1.14-.32-1.9-.68s-1.04-2.66-1.1-3.52c-.26-3.64.32-7.37-.26-11.01l15.89,15.74c.39-.25.38-.53.42-.94.64-5.69-.17-12.65.27-18.46.07-.4.32-1.03.64-1.26.71-.49,1.7.15,1.52-.79h-7.34c-.19.97,1.11.34,1.9.68,1.3.57.75,3.37.82,4.61.03.53.26,1.04.28,1.62.11,2.75-.1,5.54-.01,8.29-2.78-2.59-5.49-5.29-8.16-8-2.11-2.15-4.67-5.53-6.87-7.39-.27-.23-.64-.37-1-.36-.69.47-.14,14.51-.26,16.71-.05.85-.24,3.78-.82,4.06-.75.36-2.1-.32-1.9.68Z"/>
  <path class="cls-3" d="M338.85,71.4c-4.25-1.33-10.94-.35-10.61,5.3.32,5.56,8.37,7.17,8.15,11.64-.17,3.38-5.52,3.92-7.17,1.23l-1.09-2.97c-.6.76-.61,4.49-.28,5.16.49,1,4.37,1.18,5.44,1.08,4.73-.44,7.52-4.56,5.5-9.02-1.3-2.88-7.01-5.72-7.48-7.73-1.16-5.03,7.03-4.86,6.74-.08.25.12.81-.24.81-.41v-4.21Z"/>
  <path class="cls-3" d="M360.46,73.03c1.51-.22,3.46.16,5.03,0v16.7c0,1.24-.79,2.4-2.17,2.04v.54h8.7c.22-.91-1.03-.45-1.71-.6-.27-.06-.75-.25-.88-.48-.05-.09-.4-1.94-.4-2.04v-16.15h4.48c1.31,0,2.44,1.14,2.45,2.44.66.11.33-.31.39-.69.11-.63.28-1.57.3-2.16.07-2.3-.88-1.25-2.32-1.21-4.16.12-9.22.24-13.33,0-.86-.05-1.6-.33-2.42-.53-.63.16-.92,3.58-.97,4.32.93.02.76-1.15,1.48-1.64.2-.14,1.14-.5,1.37-.53Z"/>
  <path class="cls-3" d="M291.85,89.45c-.42-1.99.31-5.32,0-7.47h4.48c.09,0,.69.42.8.55.57.7.07,1.77.96,1.62l.27-4.61c-.05-.07-1.18.81-1.49.81h-5.03v-7.33h4.76c1.11,0,1.13,1.82,1.63,2.44.51,0,.58-3.68.68-4.34l-13.31.27c-.22.9.96.43,1.64.66.96.33,1.01,1.77,1.08,2.72.28,3.54.2,8.92,0,12.51-.05.83-.29,4.03-.82,4.34-.66.39-1.85-.32-1.63.67l12.58.22c1.3-.39.99-3.2,1.27-4.29l-.82.18c.39,3.21-6.6,3.2-7.06,1.04Z"/>
  <path class="cls-3" d="M203.54,71.4h-8.69c-.16,1.02,1.46.28,2.26.79.25.16.33.48.39.75,1.3,6.83-3.32,19.45,8.07,19.91,6,.24,8.95-3.09,9.38-8.84.25-3.33-.52-8.01.07-11.07.05-.27.13-.6.39-.75.47-.44,1.93.19,1.72-.79h-7.34c-.16.99,1.55.4,2.11.88.2.25.27.59.31.9.36,2.77.32,10.18,0,12.98-.75,6.46-9.06,6.76-10.5.78-.54-2.23-.7-11.21-.32-13.49.07-.4.32-1.03.64-1.26.71-.49,1.7.15,1.52-.79Z"/>
  <path class="cls-3" d="M258.15,71.4h-8.15c-.18,1.01,1.25.3,1.84.88l.31.9c-.22,5.33.38,11,.04,16.28-.04.67-.08,1.33-.35,1.96-.52.6-2.03-.14-1.84.88h8.69c.22-.91-1.03-.45-1.71-.6-1.23-.27-1.21-2.13-1.29-3.32-.25-3.76-.34-10.41.05-14.09.08-.73.22-2.06.97-2.29.63-.19,1.65.33,1.44-.6Z"/>
  <path class="cls-3" d="M269.3,71.4h-8.97c-.2.85,1.06.48,1.83.75.48.17.99.47,1.22.95,1.45,2.11,7.46,19.49,8.5,19.74.56.13,1.48-2.1,1.72-2.62,2.7-5.69,4.84-11.67,7.69-17.3.4-.81,1.04-.78,1.73-.99.41-.13.81.31.67-.54h-7.06c-.25,1.09,1.32.15,1.78.8l.06,1.17-5.51,13.78-5.24-13.51c-.08-.41-.19-1.11.06-1.45.43-.6,1.76.24,1.51-.8Z"/>
  <path class="cls-3" d="M353.26,71.4h-8.15c-.18,1.01,1,.24,1.79.79.54.38.62,1.17.67,1.77.34,3.7.39,12.1-.04,15.73-.05.42-.24,1.39-.49,1.68-.64.76-1.84-.1-1.65.93h8.69c.11-1.11-1.67-.14-2.45-.95-.4-.63-.49-1.44-.55-2.16-.43-5.02.33-10.65.03-15.74.07-.4.32-1.03.64-1.26.71-.49,1.7.15,1.52-.79Z"/>
  <path class="cls-3" d="M384.78,71.4h-7.34c-.1.81.92.53,1.62.96,1.45.89,6.75,9.32,7.16,11.03.27,1.1.41,7.38-.15,8.03-.44.57-2.03-.13-1.84.88h8.69c.16-1.02-1.46-.28-2.26-.79-.2-.13-.27-.32-.33-.54-.28-1.01-.28-6.88-.06-7.97.3-1.48,5.35-9.71,6.59-10.51.54-.35.88-.33,1.4-.51.42-.14.77.24.64-.57h-6.52c-.25.85.69.4.97.8.78,1.07-3.97,7.67-4.24,9.25-.89-1.02-5.32-8.43-5.15-9.07.13-.47,1.05-.19.8-.97Z"/>
  <path class="cls-3" d="M232.61,119.45h4.89c.2-1.14-1.56.03-1.64-1.22l1.1-8.55,4.65,9.06.91.45,4.89-9.78c.35,3.15,1.37,6.52,1.01,9.65l.34.39h4.76c.19-1.02-1.05-.23-1.79-.79-.23-.18-.37-.6-.47-.88-1.14-3.31-1.09-9.07-1.9-12.78-.06-.28-.16-.55-.19-.84l-.68-.19-5.84,11.41-5.31-11.12-.94-.28-2.48,14.89c-.44.28-1.55-.43-1.32.58Z"/>
  <path class="cls-3" d="M376.62,103.98h-5.71c-.18.93.71.31,1.23.81.35.34.37,1.02.41,1.49.23,2.55.27,8.35-.04,10.84-.04.33-.22,1.34-.37,1.53-.42.54-1.43-.16-1.23.81h6.25c.25-1.09-1.34-.14-1.78-.8-.55-4.5-.68-9.39,0-13.88l1.24-.8Z"/>
  <path class="cls-3" d="M389.67,103.98h-5.98c-.07.73,0,.44.41.53.95.21,1.34-.06,1.5,1.22.31,2.38.27,9.8-.04,12.21-.04.32-.14.65-.28.93-.45.28-1.55-.42-1.32.58h6.25v-.54c-.48.17-1.9-.2-1.9-.68v-6.38l5.56,6.25c.38.36,1.77,1.35,2.18,1.35h3.94c.14-.81-.21-.43-.64-.57-3.95-1.31-6.28-5.39-9.13-8.25,1.93-1.55,3.99-4.72,6.17-5.77.65-.31,1.86-.07,1.7-.89h-4.89c-.02.33.26.64.25.96-.04,1.14-4.32,4.62-5.14,5.82v-5.57c0-.28.98-.79,1.36-.68v-.54Z"/>
  <rect class="cls-3" x="152.73" y="110.49" width="35.87" height="1.09"/>
  <rect class="cls-3" x="404.88" y="110.49" width="35.87" height="1.09"/>
  <path class="cls-3" d="M184.24,133.57c1.47-3.38-3.81-2.92-4.85-.91-1.77,3.39,4,4.94,3.78,7.28-.14,1.42-2.43,1.93-3.43.72-.66-.8.02-1.8-.92-1.65l.04,2.67c2.2.85,5.85.44,5.9-2.53s-4.39-4.36-4.25-5.93c.11-1.24,2.01-1.64,2.92-.85.46.4.32,1.12.82,1.21Z"/>
  <path class="cls-3" d="M198.11,131.4h-8.56c-.1,0-.4-.38-.68-.27l-.27,2.17c.85-1.27,2.37-1.07,3.8-1.09v8.82l-1.09.41v.54h4.35v-.54s-1.36-.41-1.36-.41v-8.82c.81,0,1.62-.07,2.41.18.95.3.58.97,1.4.91v-1.9Z"/>
  <path class="cls-3" d="M336.39,131.69c-3.11-.99-7.74-.91-9.22,2.55-2.45,5.72,3.6,9.22,8.59,7.5l.65-2.47c-.92.89-.79,1.67-2.32,1.88-6.39.89-7.09-8.68-2.13-9.2,1.1-.11,3,.24,3.61,1.24.26.42.11,1.17.57,1.19l.25-2.69Z"/>
  <path class="cls-3" d="M425.53,136.56h-4.08v.54s1.09,0,1.09,0v4.07c-4.18.72-6.6-2.3-5.91-6.31.51-3,4.43-3.75,6.56-2.07.84.67.34,1.61,1.26,1.59l-.04-2.67c-4.06-1.38-9.73-.4-10,4.75-.27,5.26,5.79,6.44,9.77,5.12l.3-4.04,1.05-.98Z"/>
  <path class="cls-3" d="M157.89,131.4h-4.08c.17.68,1.01.11,1.11.94.11.95.11,8.49-.14,8.85-.41.38-1.17-.04-.97.79h4.35l-1.24-.8-.13-9.07,1.1-.72Z"/>
  <path class="cls-3" d="M171.75,139l-7.19-7.34-.96-.26v9.64l-1.09.95h3.53s-1.05-.98-1.05-.98c.22-.74-.3-1.97-.3-2.41v-4.21l7.19,7.34.96.26v-9.64c0-.37,1.09-.51,1.09-.95h-3.53c.22.46,1.36.44,1.36,1.22v6.38Z"/>
  <path class="cls-3" d="M206.26,131.4h-4.08c0,.48.72.33.96.81.3.59.23,8.57-.12,9.08-.26.38-1.06-.18-.84.7h4.35c-.09-.7-1.24-.44-1.34-.56-.39-.43-.46-8.78.11-9.5.31-.39,1.01-.02.96-.53Z"/>
  <path class="cls-3" d="M219.57,131.4h-9.24l-.27,1.9c.86-.03.5-.71,1.61-.97.82-.19,1.64-.11,2.46-.12v8.28c0,.53-.46,1.21-1.09.95v.54s4.35,0,4.35,0l-1.37-.7-.22-8.63c.31-.95,3.36-.39,3.76.64v-1.9Z"/>
  <path class="cls-3" d="M227.18,131.4h-4.35c-.04.48.63.24.98.52,1.21.97-.84,7.29,1.75,9.38,1.65,1.33,5.05,1.09,6.36-.68.33-.45.97-2.1.97-2.56v-6.38h-1.9c.8,1.45.7,4.38.55,6.12-.2,2.34-1.11,4.11-3.83,3.26-.68-.21-1.62-1.6-1.62-2.18v-6.92l1.08-.27v-.27Z"/>
  <path class="cls-3" d="M246.74,131.4h-9.24l-.27,1.9c.86-.03.5-.71,1.61-.97.82-.19,1.64-.11,2.46-.12v7.47c0,.28-.5,1.18-.3,1.75h-.79s0,.56,0,.56h4.35c-.6-.85-1.63-.13-1.63-1.76v-8.01c.81,0,1.62-.07,2.41.18.95.3.58.97,1.4.91v-1.9Z"/>
  <path class="cls-3" d="M257.34,131.4h-6.79c.02.51.74.2,1.12.65.34.4.4,8.74.12,9.14-.41.38-1.17-.04-.97.79h6.52l.27-2.17c-.78.65-.83,1.33-2.04,1.37-2.69.11-1.54-2.57-1.76-4.36l2.28.03.71,1.05.28-2.17-3.26.27v-3.8c.71.03,1.5-.11,2.19.12.73.25.55.81,1.07.97l.27-1.9Z"/>
  <path class="cls-3" d="M291.3,131.4h-6.79c.02.51.74.2,1.12.65.43.51.36,8.87-.08,9.36-.19.21-.99-.31-.77.58h4.35c-.01-.7-1.36-.46-1.36-.54v-4.62c.66.1,1.69-.17,2.28.03.48.17.25.83.71.78l.28-1.76-3.26.13v-3.8c.84.05,1.88-.16,2.66.18.66.28-.06,1.11.87.9v-1.9Z"/>
  <path class="cls-3" d="M311.41,131.4h-9.24l-.27,1.9c.86-.03.5-.71,1.61-.97.82-.19,1.64-.11,2.46-.12v8.28c0,.53-.46,1.21-1.09.95v.54s4.35,0,4.35,0c-.01-.7-1.36-.46-1.36-.54v-9.23c1.36,0,2.73-.11,3.53,1.09v-1.9Z"/>
  <path class="cls-3" d="M322.01,131.4h-6.79l1.32.58-.08,9.21c-.27.4-1.22-.07-.97.79h6.39l.36-.45.04-1.72c-.5-.03-.29.75-.61,1.02-.5.42-2.4.47-2.93-.07-.6-.61-.11-3.01-.27-3.94.69.09,1.66-.16,2.28.04.51.16.19,1.01.98.78v-2.17s-3.26.54-3.26.54v-3.8c1.32.04,2.58-.43,3.12,1.08l.41-1.9Z"/>
  <path class="cls-3" d="M344.83,131.4h-4.08l1.09.68v9.37h-.82s0,.54,0,.54h4.08v-.54c-.77.22-1.36-.15-1.36-.95v-3.94h5.43v4.48l-1.09.41v.54h4.35v-.54s-1.36,0-1.36,0v-9.37l1.09-.68h-4.35l1.31,1,.05,3.34h-5.43c.14-.98-.22-2.45.05-3.34.21-.68.95-.47,1.04-1Z"/>
  <path class="cls-3" d="M366.03,139c-2.6-1.57-4.87-5.85-7.19-7.34-.34-.22-.54-.33-.96-.26v9.64l-1.09.95h3.53c.28-.96-.84-.34-1.07-.56.13-.41-.29-1.01-.29-1.21v-5.57l7.48,7.33.68-.41v-9.23c0-.08.37-.38.27-.68h-1.9c-.08.06.54,1.04.54,1.22v6.11Z"/>
  <path class="cls-3" d="M392.38,131.4h-4.35c.02.51.74.2,1.12.65.4.47.4,8.65,0,9.24-.26.38-1.06-.18-.84.7h6.39c.65-.56.75-1.35.68-2.17-1.07,1.52-2.41,1.76-4.09.92.28-1.39-.37-8.13.13-8.81.27-.36,1.03,0,.97-.52Z"/>
  <path class="cls-3" d="M431.51,141.98h4.35v-.54s-1.36,0-1.36,0v-4.48c0-.27,2.42-3.71,2.72-4.34l1.63-1.22h-3.26c.84,1.62-1.05,3.4-1.77,4.88-.76-1.4-2.6-3.27-2.04-4.88h-3.53c2.57,2.43,4.97,5.84,4.31,9.6l-1.05.98Z"/>
  <path class="cls-3" d="M263.17,159.65c-1.12-.79-2.73-7.57-4.07-8.97-.56.01-3.05,7.47-3.69,8.51-.5.79-1.02.43-1.33.99h3.25l-.8-.27.67-2.45,3.09-.23.86,2.93c.76,0,1.54.06,2.31.01.31-.01.74.18.67-.26-.34-.01-.69-.06-.96-.26ZM257.62,156.38l1.22-2.99.94,2.99h-2.16Z"/>
  <path class="cls-3" d="M292.66,157.73c-.57.43-3.37-7.57-4.07-7.06l-1.41,8.78-1.04.72h2.99c.09-.43-.5-.26-.68-.53-.5-.75.43-4.11.55-5.17.82,1.46,1.42,3.08,2.27,4.53.15.26.71,1.56,1.13,1.18l2.86-5.97.68,5.98h2.99c.04-.48-.63-.24-.98-.52-.84-.69-1.09-9-1.88-8.98l-3.4,7.05Z"/>
  <path class="cls-3" d="M314.67,150.67c-.7-.08-.43,0-.55.39-.83,2.78-.63,6.28-1.62,9.11h1.36s.55-5.7.55-5.7c1.26,1.42,1.93,3.47,2.86,5.17.17.31-.02.66.53.53l2.99-5.97.68,5.98h3.26c0-.5-.8-.29-1.18-.52-.59-.36-1.23-7.72-1.54-8.98-.64-.13-.44.09-.61.35-1.31,2.01-2.05,4.65-3.33,6.71l-3.4-7.06Z"/>
  <path class="cls-3" d="M250.82,157.46c-2.19-1.39-4.36-4.96-6.37-6.26-.34-.22-.54-.33-.96-.26v8.55c0,.08-.37.38-.27.68h1.9c.19-.47-.54-1.01-.54-1.22v-5.29l6.66,6.51c.43.23.68-1.15.68-1.22v-7.74h-1.36c-.1.3.27.6.27.68v5.57Z"/>
  <path class="cls-3" d="M267.12,150.94h-3.8l1.47,1.11c1.18,2.34,1.91,5.17,3.14,7.45.15.29.23.77.69.66l4.21-8.96-1.33.03-2.75,6.48c-.26-1.89-1.72-3.89-2.12-5.63-.24-1.05.08-.58.48-1.15Z"/>
  <path class="cls-3" d="M278.8,150.95h-3.53c-.02.43.51.27.77.72.93,1.61,0,6.52.04,8.51h2.17s-.29-8.81-.29-8.81l.83-.42Z"/>
  <path class="cls-3" d="M304.08,150.94h-3.8c0,.56.83.07,1.05.71.41,1.18-.14,4.58.36,6.42,1,3.61,7.55,2.69,7.55-.75v-6.11h-1.36c.27,2.24,1.2,8.59-2.3,8.43s-2.04-5.55-2.32-7.76l.82-.94Z"/>
  <path class="cls-3" d="M348.91,152.71v8.01h-.82s0,.54,0,.54h3.8l-1.24-.8c-.23-.32-.24-7.59,0-7.91.27-.36,1.03,0,.97-.52-.31.1-4.46-.38-3.8.27l1.09.41Z"/>
  <rect class="cls-3" x="152.73" y="110.49" width="35.87" height="1.09"/>
  <rect class="cls-3" x="404.88" y="110.49" width="35.87" height="1.09"/>
  <path class="cls-3" d="M245.11,55.39l2.59,5.43c.57.12.37-.24.54-.54.76-1.33,1.36-3.24,2.11-4.42.21-.34.26-.57.75-.47.22.26.6,5.77.94,6.8.36,1.1,1.33.39,1.24,1.34h-2.72s-.27-4.61-.27-4.61c-.64-.14-.44.08-.61.35-.41.63-1.67,4.13-2.24,3.99l-2.45-4.62-.43,3.96.56.93h-2.44c-.19-.77.5-.44.76-.99.71-1.49.46-4.94,1.11-6.77.14-.39-.08-.46.57-.37Z"/>
  <path class="cls-3" d="M277.72,63.53c-.23-.73.41-.42.53-.74.33-.88.5-5.6.15-6.32-.26-.55-1.16-.27-.95-1.08h4.48c.09,0,1.48.4,1.69.48,2.83,1.15,3.01,5.34.61,6.97-.2.14-1.38.69-1.48.69h-5.03ZM279.89,56.61v5.7l.45.36c5.37,1.22,5.21-6.27.46-6.46-.34-.01-.81.05-.91.4Z"/>
  <path class="cls-3" d="M195.12,63.53l.83-.69v-6.24s-.83-1.21-.83-1.21h4.48c.1,0,1.48.4,1.69.49,2.43,1.04,2.84,4.53,1.13,6.4-.26.28-1.82,1.26-2,1.26h-5.3ZM197.29,56.61c-.21.68,0,3.86,0,4.89,0,.18.42,1.08.71,1.18,5.35,1.11,5.19-6.5.22-6.49-.33,0-.83.08-.94.42Z"/>
  <path class="cls-3" d="M343.11,56.56c1.87,2.06.78,6.33-2,6.9-3.4.69-5.91-1.12-5.51-4.7s5.36-4.58,7.52-2.21ZM338.78,56.26c-2.35.53-2.11,5.33.15,6.25,4.77,1.94,4.66-7.33-.15-6.25Z"/>
  <path class="cls-3" d="M378.25,63.53l.82-1.21.02-5.72-.84-1.21c1.9.05,5.27-.53,4.89,2.28-.07.51-.55.99-.56,1.36,0,.16,1.77.59,1.37,2.72-.1.51-1.38,1.77-1.76,1.77h-3.94ZM381.74,58.6c.65-1.05-.01-2.51-1.32-2.4v2.44s1.32-.04,1.32-.04ZM380.43,59.46c.11,1.51-.7,3.91,1.63,3.12,1.37-1.18,0-3.23-1.63-3.12Z"/>
  <path class="cls-3" d="M398.63,55.38v1.63c-.73.26-.43-.49-.72-.55s-1.69-.09-1.73.16v2.02s2.46.14,2.46.14l-.28,1.76c-.46.05-.23-.61-.71-.78-.41-.14-1.01,0-1.46-.03v2.53c.08.37,1.07.48,1.43.41.87-.15.73-.8,1.29-1.04l-.04,1.45-.36.45h-4.76v-.54s.82,0,.82,0v-6.79c0-.07-1.08-.11-.82-.81h4.89Z"/>
  <path class="cls-3" d="M267.39,55.38v1.63c-.73.26-.43-.49-.72-.55-.51-.11-1.18.07-1.73,0v2.17s2.18,0,2.18,0v1.77c-.36.43-.26-.49-.71-.64-.41-.14-1.01,0-1.46-.03l.04,2.68c.89.5,1.59.31,2.4-.23v1.36s-4.89,0-4.89,0v-.54s.82,0,.82,0v-6.79c0-.07-1.08-.11-.82-.81h4.89Z"/>
  <path class="cls-3" d="M233.16,55.38l-.28,1.9c-.46.05-.22-.62-.71-.78s-1.2.02-1.74-.04l.12,2.19h2.32s0,1.48,0,1.48c-.57.63-.5-.37-.72-.41-.52-.1-1.18.06-1.73,0-.25,1.62.02,3.69,2.12,2.81.46-.19.12-.84.87-.63l-.27,1.63h-4.89l.82-1.21.02-5.72-.84-1.21h4.89Z"/>
  <path class="cls-3" d="M217.94,55.38v1.9c-.46.05-.23-.61-.71-.78-.27-.09-1.7-.15-1.74.12v2.29c1.97-.16,3.06-1.12,2.18,1.63l-.28-.79-1.89-.02v2.53c.08.37,1.07.48,1.43.41.87-.15.73-.8,1.29-1.04l-.04,1.45-.36.45h-4.48c-.23-.73.41-.42.53-.74.37-.98.49-5.37.09-6.26-.29-.64-1.06-.36-.89-1.14h4.89Z"/>
  <path class="cls-3" d="M326.36,55.38v1.9c-.46.05-.23-.61-.71-.78-.53-.19-1.41.05-2.01-.03v5.84c0,.94,1.32.35,1.09,1.22h-3.26c-.3-.71.81-.66.81-.95v-6.11c-1.03-.01-1.9-.2-2.71.54v-1.63s6.79,0,6.79,0Z"/>
  <path class="cls-3" d="M165.5,13.31c1.82-.72,3.79-.03,5.56,0,10.79.24,26.72-2.87,33.07,8.49,4.52,8.08,1.94,19.61-6.11,24.39-7.81,4.63-17.24,3.03-25.85,2.95-.96,0-5.14.15-5.59-.14-.38-.25-.35-.56,0-.83,2.69-.2,3.56-.44,3.81-3.25.81-9.09-.6-19.3,0-28.51-.01-1.19-.82-1.64-1.85-1.95-.48-.15-3.66-.31-3.05-1.16ZM178.74,15.82c-1.41.26-1.46.92-1.57,2.23-.55,6.65-.47,18.9.31,25.5.43,3.61,5.95,3.62,8.8,3.42,11.16-.77,14.81-10.14,12.23-20.09-2.13-8.21-11.82-12.54-19.77-11.06Z"/>
  <path class="cls-3" d="M293.89,13.03c14.05,1.48,10.28,20.12-3.8,20.38-.94.02-2.79-.15-1.77-1.25,12.21-.53,9.53-19.6-2.32-16.44.16,8.87-.62,18.22-.13,27.04.06,1,.33,4.53,1.01,5.03,1.46,1.08,4.53-.38,4.43,1.61-5.04-.12-10.09.09-15.13.17-1.62.02-1.66-1.11-.24-1.27,2.76-.31,2.89-.29,3.13-3.38.72-9.18-.53-19.23.01-28.51-.04-1.34-1.17-2.01-2.38-2.24-1.01-.19-2.74.42-2.52-1.15h19.7Z"/>
  <path class="cls-3" d="M339.28,48.3c-1.67-.27-2.63-1.71-3.47-3.05-5.25-9.67-8.32-22.05-13.57-31.5-.28-.52-.51-1.18-1.2-1.27-.74-.07-1.22.62-1.54,1.18-4.92,11.18-9.28,22.67-14.77,33.56-1.22,1.26-2.62,1.03-4.19,1.25l-.27.95h13.04l-.26-.95c-.75-.52-3.24.53-3.23-1.35.01-.87,3.07-8.97,3.48-9.26h12.25s4.04,9.84,4.04,9.84c.06.67-1.4.67-1.05,1.71,2.03.05,4.08-.06,6.12-.01.96.02,6.68.74,6.92-.4.19-.94-1.78-.62-2.29-.7ZM314.67,34.75l4.62-12.48,4.89,12.48h-9.52Z"/>
  <path class="cls-3" d="M232.07,49.41l.16-.84c1.99-.47,3.43.2,3.85-2.35.54-3.23.33-11.37-1.07-14.27-1.5-3.11-8.86-15.29-11.23-17.01-1.12-.82-1.81-.59-2.78-1.02-1.14-.51-.68-1.04.38-1.05,3.87-.04,7.79,0,11.65-.06,2.79-.04-.75,1.44-.85,1.57-.2.27-.12.56,0,.83l8.71,15.47,7.56-14.16.15-1.95c-.28-.81-2.03-.23-1.59-1.52h11.68c-.03,1.16-1.66.91-2.44,1.21-3.48,1.32-8.18,10.06-10.1,13.53-1.3,2.35-3.02,4.93-3.23,7.64-.16,2.16-.27,9.63.36,11.34.87,2.36,3.18,1.15,5.09,1.84.15.22-.26.81-.41.81h-15.9Z"/>
  <path class="cls-3" d="M348.23,49.41c-.21-.06-.55-.61-.41-.81,2.51-.51,3.68.17,4.04-2.88.25-2.1.25-5.34.31-7.56.21-7.37-.18-14.77,0-22.14-2.85.41-6.05,0-8.83.28-1.01.1-2.45.43-3.13,1.22-.75.86-.57,2.51-1.9,2.31-.12-2.48.62-4.9,1.11-7.31l.38-.04c2.22.8,4.28.44,6.54.55.64.03,1.24.27,1.88.29,7.81.27,15.71-.01,23.48-.52.67,1.09.06,2.1.04,3.09-.02.79.26,4.33-.41,4.48-.8.17-.63-1.7-1.09-2.43-.64-1-2.41-1.52-3.53-1.64-2.5-.25-5.46-.02-8.01-.28.23,8.08-.3,16.23,0,24.31.02.64.26,1.24.29,1.88.12,2.08-.78,5.73,2.04,6.1,1.19.16,3.32-.58,3.11,1.1h-15.9Z"/>
  <g>
    <path class="cls-3" d="M417.38,13.04c.65.92-2.9,1.03-3.33,1.15-1.36.39-1.4,1.84-1.53,3.09-.61,6.24-.43,16.95-.05,23.32.07,1.1.33,3.98.97,4.73,1.16,1.34,7.65,1.28,9.47,1.07,2.82-.32,4.01-1.86,4.38-4.59l.95-.27c-.08,1.85.32,7.57-2.02,7.89-5.01.67-12.01-.33-17.16-.26-1.12.25-7.17.53-7.58-.02-.25-.34-.14-.44.13-.69,2.06-.36,3.24.17,3.75-2.23-.05-9.24,1.2-20.13.35-29.27-.28-2.94-2.06-3-4.63-3.11l.02-.79,16.29-.02Z"/>
    <path class="cls-3" d="M393.74,14.12c-3.04-.07-3.75.5-4.04,3.43-.67,6.88-.5,19.02-.05,26.04.06.88.33,3.53.81,4.07,1.31,1.48,4.64-.42,4.63,1.75h-16.3s.01-.8.01-.8c3.21-.45,3.82-.22,4.08-3.67.68-9.28-.52-19.4-.03-28.77-.3-1.89-2.34-2.13-3.92-2.05-.46-.77.06-1.02.8-1.1,2.72-.32,10.35-.31,13.07,0,.8.09,1.04.22.94,1.1Z"/>
  </g>
  <g>
    <path class="cls-3" d="M220.93,92.3c-.2-1,1.15-.31,1.9-.68.59-.28.78-3.21.82-4.06.12-2.2-.43-16.24.26-16.71.36-.01.73.13,1,.36,2.2,1.86,4.76,5.24,6.87,7.39,2.66,2.72,5.37,5.41,8.16,8-.09-2.75.13-5.54.01-8.29-.02-.58-.25-1.09-.28-1.62-.08-1.24.48-4.03-.82-4.61-.78-.34-2.09.29-1.9-.68h7.34c.18.94-.81.3-1.52.79-.32.23-.58.86-.64,1.26-.44,5.81.36,12.77-.27,18.46-.05.41-.03.69-.42.94l-15.89-15.74c.58,3.63,0,7.36.26,11.01.06.86.3,3.14,1.1,3.52s2.1-.32,1.9.68h-7.88Z"/>
    <path class="cls-3" d="M315.62,71.4c6.22.88,5.29,8.39,1,11.26,2.33,2.91,4.51,6.23,7.47,8.51.57.4,1.24.41,1.87.58.44.12.8-.29.67.55h-5.3c-1.98,0-6-6.63-7.32-8.16l-3.14-.25v5.84c0,.14.41,1.5.54,1.64.55.73,2.37-.11,2.18.94h-8.42c-.21-1,.97-.29,1.63-.68.3-.17.47-.76.52-1.11.79-5.12-.56-12.05.03-17.37.02-.43-.09-.66-.44-.91-.85-.59-2.43.21-2.29-.83,3.41.35,7.71-.47,11,0ZM310.87,81.99c2.07.47,4.47.82,5.38-1.55,1.61-4.16-.48-8.47-5.38-7.68v9.23Z"/>
    <path class="cls-3" d="M203.54,71.4c.18.94-.81.3-1.52.79-.32.23-.58.86-.64,1.26-.37,2.28-.21,11.26.32,13.49,1.44,5.98,9.75,5.69,10.5-.78.33-2.81.36-10.21,0-12.98-.04-.32-.11-.65-.31-.9-.56-.48-2.27.11-2.11-.88h7.34c.2.99-1.26.35-1.72.79-.25.16-.33.48-.39.75-.59,3.06.18,7.74-.07,11.07-.43,5.74-3.38,9.08-9.38,8.84-11.38-.46-6.77-13.08-8.07-19.91-.05-.27-.13-.59-.39-.75-.81-.51-2.42.23-2.26-.79h8.69Z"/>
    <path class="cls-3" d="M291.85,89.45c.46,2.16,7.45,2.17,7.06-1.04l.82-.18c-.28,1.09.02,3.9-1.27,4.29l-12.58-.22c-.21-1,.97-.29,1.63-.67.53-.31.78-3.51.82-4.34.2-3.59.28-8.97,0-12.51-.07-.95-.12-2.39-1.08-2.72-.69-.23-1.86.24-1.64-.66l13.31-.27c-.09.66-.17,4.33-.68,4.34-.5-.61-.52-2.44-1.63-2.44h-4.76v7.33h5.03c.31,0,1.44-.88,1.49-.81l-.27,4.61c-.89.15-.39-.92-.96-1.62-.11-.14-.71-.55-.8-.55h-4.48c.31,2.15-.42,5.48,0,7.47Z"/>
    <path class="cls-3" d="M269.3,71.4c.25,1.04-1.08.2-1.51.8-.24.34-.14,1.03-.06,1.45l5.24,13.51,5.51-13.78-.06-1.17c-.46-.65-2.03.29-1.78-.8h7.06c.14.85-.26.41-.67.54-.7.21-1.33.18-1.73.99-2.84,5.63-4.99,11.61-7.69,17.3-.24.51-1.17,2.75-1.72,2.62-1.05-.25-7.05-17.63-8.5-19.74-.23-.48-.74-.78-1.22-.95-.77-.27-2.03.1-1.83-.75h8.97Z"/>
    <path class="cls-3" d="M384.78,71.4c.25.78-.68.51-.8.97-.18.64,4.26,8.05,5.15,9.07.27-1.57,5.01-8.18,4.24-9.25-.28-.39-1.22.06-.97-.8h6.52c.14.81-.21.43-.64.57-.52.18-.87.17-1.4.51-1.24.8-6.29,9.03-6.59,10.51-.22,1.09-.22,6.96.06,7.97.06.22.13.41.33.54.81.51,2.42-.23,2.26.79h-8.69c-.2-1.01,1.4-.31,1.84-.88.56-.65.42-6.92.15-8.03-.41-1.71-5.71-10.15-7.16-11.03-.7-.43-1.72-.15-1.62-.96h7.34Z"/>
    <path class="cls-3" d="M338.85,71.4v4.21c0,.17-.56.52-.81.41.3-4.78-7.9-4.94-6.74.08.47,2.01,6.17,4.85,7.48,7.73,2.02,4.46-.77,8.58-5.5,9.02-1.06.1-4.94-.08-5.44-1.08-.33-.67-.32-4.4.28-5.16l1.09,2.97c1.66,2.69,7,2.15,7.17-1.23.23-4.48-7.82-6.09-8.15-11.64-.33-5.66,6.36-6.63,10.61-5.3Z"/>
    <path class="cls-3" d="M360.46,73.03c-.23.03-1.17.39-1.37.53-.72.5-.55,1.66-1.48,1.64.05-.73.34-4.15.97-4.32.82.19,1.56.47,2.42.53,4.11.25,9.17.12,13.33,0,1.44-.04,2.39-1.08,2.32,1.21-.02.59-.2,1.53-.3,2.16-.06.38.27.8-.39.69,0-1.3-1.14-2.44-2.45-2.44h-4.48v16.15c0,.1.35,1.95.4,2.04.13.23.61.42.88.48.67.15,1.93-.3,1.71.6h-8.69v-.54c1.38.36,2.17-.8,2.17-2.04v-16.7c-1.57.16-3.52-.22-5.03,0Z"/>
    <path class="cls-3" d="M258.15,71.4c.21.92-.81.4-1.44.6-.75.23-.89,1.56-.97,2.29-.39,3.68-.3,10.33-.05,14.09.08,1.19.06,3.05,1.29,3.32.67.15,1.93-.3,1.71.6h-8.69c-.19-1.02,1.32-.29,1.84-.88.27-.63.31-1.28.35-1.96.34-5.29-.26-10.96-.04-16.28l-.31-.9c-.59-.58-2.01.13-1.84-.88h8.15Z"/>
    <path class="cls-3" d="M353.26,71.4c.18.94-.81.3-1.52.79-.32.23-.58.86-.64,1.26.3,5.09-.45,10.72-.03,15.74.06.72.15,1.54.55,2.16.78.81,2.56-.16,2.45.95h-8.69c-.19-1.03,1.01-.17,1.65-.93.25-.29.44-1.26.49-1.68.43-3.63.38-12.03.04-15.73-.05-.6-.13-1.39-.67-1.77-.78-.55-1.96.21-1.79-.79h8.15Z"/>
  </g>
  <path class="cls-3" d="M389.67,103.98v.54c-.38-.11-1.36.4-1.36.68v5.57c.81-1.21,5.09-4.68,5.14-5.82.01-.32-.27-.63-.25-.96h4.89c.16.81-1.05.57-1.7.89-2.18,1.05-4.24,4.21-6.17,5.77,2.85,2.87,5.19,6.94,9.13,8.25.43.14.77-.24.64.57h-3.94c-.41,0-1.8-1-2.18-1.35l-5.56-6.25v6.38c0,.48,1.42.85,1.9.68v.54h-6.25c-.23-1,.87-.3,1.32-.58.14-.29.24-.61.28-.93.31-2.41.35-9.83.04-12.21-.17-1.28-.56-1.01-1.5-1.22-.42-.09-.48.2-.41-.53h5.98Z"/>
  <path class="cls-3" d="M376.62,103.98l-1.24.8c-.69,4.48-.56,9.37,0,13.88.44.65,2.04-.29,1.78.8h-6.25c-.2-.97.81-.26,1.23-.81.14-.19.33-1.2.37-1.53.31-2.49.28-8.29.04-10.84-.04-.47-.06-1.15-.41-1.49-.52-.5-1.41.12-1.23-.81h5.71Z"/>
  <path class="cls-3" d="M356.11,103.98c5.77.49,9.79,4.4,7.68,10.39-2.43,6.9-10.04,4.94-15.7,5.08-.21-.97.81-.26,1.23-.81.14-.19.33-1.2.37-1.53.32-2.51.27-8.26.04-10.84-.04-.47-.06-1.15-.41-1.49-.61-.59-1.71.2-1.5-.81,2.69.17,5.63-.22,8.29,0ZM352.9,105.12c-.24.07-.49.26-.6.49-.29.59-.23,8.4-.15,9.65.17,2.37.22,3.32,2.86,3.4,5.03.16,6.9-3.11,6.39-7.76-.41-3.78-4.88-6.85-8.51-5.78Z"/>
  <path class="cls-3" d="M326.9,119.45c-.07-.74,0-.44.41-.53,1.09-.25,1.16-.09,1.82-1.18,2.16-3.57,3.23-9.52,5.32-13.14.49-.85.84-.99,1.26-.08,1.74,3.77,3.33,9.86,5.35,13.12.16.26.66.87.9,1,.75.43,1.68-.09,1.51.8h-5.16c.49-1.7-.9-3.37-1.33-4.99l-4.88-.13c-.09.88-1.71,3.76-1.28,4.32.39.51,1.46-.16,1.25.8h-5.16ZM336.41,113.21l-1.63-5.16c-1.1,1.38-1.48,3.5-2.17,5.16h3.8Z"/>
  <g>
    <path class="cls-3" d="M232.61,119.45c-.23-1.01.88-.3,1.32-.58l2.48-14.89.94.28,5.31,11.12,5.84-11.41.68.19c.03.29.12.56.19.84.81,3.71.75,9.46,1.9,12.78.1.28.24.71.47.88.74.56,1.98-.23,1.79.79h-4.76l-.34-.39c.35-3.13-.67-6.5-1.01-9.65l-4.89,9.78-.91-.45-4.65-9.06-1.1,8.55c.08,1.25,1.84.08,1.64,1.22h-4.89Z"/>
    <path class="cls-3" d="M275.54,119.45c-.15-.92,1.01-.38,1.74-.84.86-.54,5.12-12.09,6.02-14.09.44-.98.76-.74,1.22.12,1.23,2.31,4.77,13.12,6.13,13.97.73.46,1.89-.08,1.74.84h-5.43c.71-1.76-.88-3.37-1.12-5.13l-4.87.09c-.58,1.45-1.51,2.88-1.35,4.49.2.2,1.65-.47,1.36.54h-5.43ZM285.33,113.21c-.8-1.61-1.05-3.8-2.17-5.16l-1.63,5.16h3.8Z"/>
    <path class="cls-3" d="M212.51,119.45c-.18-.91.78-.35,1.51-.8,1.52-.92,4.97-12.78,6.5-14.95.48-.07.52.36.69.67,1.31,2.43,4.81,13.38,6.36,14.28.75.44,1.68-.09,1.51.8h-5.16c.47-1.66-.94-3.37-1.33-4.99l-4.88-.13c-.14.87-1.73,3.74-1.28,4.32.39.51,1.46-.16,1.25.8h-5.16ZM222.02,113.21l-1.63-5.16c-1.13,1.36-1.55,3.48-2.17,5.16h3.8Z"/>
    <path class="cls-3" d="M303.75,103.79c4.22-.36,8.55,1.71,9.02,6.3.58,5.73-3.24,10.02-9.1,9.63-9.77-.66-10.06-15.06.08-15.93ZM303.19,104.86c-5.28.75-5.04,9.51-1.69,12.41,2.29,1.98,6.24,1.92,7.66-1.02,2.19-4.52.06-12.25-5.97-11.39Z"/>
    <path class="cls-3" d="M202.86,103.98c3.79.44,5.16,3.64,2.97,6.77-.29.42-1.53,1.31-1.45,1.74l4.59,5.48,2.72,1.49c-2.18-.01-3.99.39-5.7-1.22-.86-.81-3.16-4.71-3.59-4.96s-1.55.04-2.12-.06v5.02c0,.07.28.63.46.69h1.44s0,.53,0,.53h-6.25c-.23-1,.87-.3,1.32-.58.14-.29.24-.61.28-.93.31-2.41.35-9.83.04-12.21-.17-1.28-.56-1.01-1.5-1.22-.42-.09-.48.2-.41-.53,2.29.19,4.96-.26,7.2,0ZM200.01,111.85c3.38,1.26,4.92-1.33,4.29-4.42-.37-1.78-2.8-3.15-4.29-1.96v6.38Z"/>
    <path class="cls-3" d="M266.17,103.98c2.99.37,4.81,2.72,3.5,5.67-.33.75-2.27,2.42-2.16,2.74,2.01,2.26,3.6,5.48,6.58,6.49.42.14.78-.24.64.57-2.71.09-4.07.28-5.97-1.77-1.69-1.83-2.47-5.17-5.44-4.47v4.75c0,.74,1.23,1.16,1.9.95v.54h-5.98c-.19-.96.76-.27,1.23-.81.18-.2.34-.94.38-1.25.33-2.51.27-8.53.04-11.12-.04-.47-.06-1.15-.41-1.49-.61-.59-1.71.2-1.5-.81,2.28.2,4.98-.27,7.2,0ZM263.32,111.85c6,2.06,5.66-7.76,0-6.79v6.79Z"/>
  </g>
  <path class="cls-3" d="M344.83,131.4c-.08.53-.83.32-1.04,1-.27.89.09,2.36-.05,3.34h5.43l-.05-3.34-1.31-1h4.35l-1.09.68v9.37h1.36s0,.54,0,.54h-4.35v-.54s1.09-.41,1.09-.41v-4.48h-5.43v3.94c0,.8.58,1.17,1.36.95v.54h-4.08v-.54s.82,0,.82,0v-9.37l-1.09-.68h4.08Z"/>
  <path class="cls-3" d="M171.75,139v-6.38c0-.78-1.14-.75-1.36-1.22h3.53c0,.44-1.09.58-1.09.95v9.64l-.96-.26-7.19-7.34v4.21c0,.45.53,1.67.3,2.41l1.05.98h-3.53s1.09-.95,1.09-.95v-9.64l.96.26,7.19,7.34Z"/>
  <path class="cls-3" d="M274.55,130.98c-3.12,0-5.64,2.51-5.64,5.63s2.53,5.63,5.64,5.63,5.63-2.53,5.63-5.63-2.51-5.63-5.63-5.63ZM274.67,141.39c-4.64-.51-5.18-8.8-1.09-9.39,5.92-.84,6.15,9.96,1.09,9.39Z"/>
  <path class="cls-3" d="M383.74,136.61c0,3.11-2.52,5.63-5.63,5.63s-5.63-2.52-5.63-5.63,2.52-5.63,5.63-5.63,5.63,2.52,5.63,5.63ZM377.1,132c-3.84.67-3.67,8.23.67,9.26,5.64,1.33,5.32-10.3-.67-9.26Z"/>
  <path class="cls-3" d="M410.26,136.61c0,3.11-2.52,5.63-5.63,5.63s-5.63-2.52-5.63-5.63,2.52-5.63,5.63-5.63,5.63,2.52,5.63,5.63ZM403.45,132c-3.62.73-3.28,7.59.07,9.03,6.26,2.7,6.45-10.35-.07-9.03Z"/>
  <path class="cls-3" d="M366.03,139v-6.11c0-.18-.62-1.16-.54-1.22h1.9c.1.29-.27.59-.27.68v9.23l-.68.41-7.48-7.33v5.57c0,.2.41.79.29,1.21.23.22,1.35-.4,1.07.56h-3.53s1.09-.95,1.09-.95v-9.64c.42-.07.63.04.96.26,2.32,1.5,4.59,5.77,7.19,7.34Z"/>
  <path class="cls-3" d="M425.53,136.56l-1.05.98-.3,4.04c-3.98,1.32-10.04.14-9.77-5.12.27-5.15,5.94-6.13,10-4.75l.04,2.67c-.92.02-.42-.93-1.26-1.59-2.12-1.68-6.04-.93-6.56,2.07-.69,4.02,1.73,7.03,5.91,6.31v-4.07h-1.09s0-.54,0-.54h4.08Z"/>
  <path class="cls-3" d="M227.18,131.4v.27s-1.09.27-1.09.27v6.92c0,.59.94,1.97,1.62,2.18,2.72.85,3.63-.92,3.83-3.26.15-1.74.25-4.67-.55-6.12h1.9s0,6.38,0,6.38c0,.46-.64,2.11-.97,2.56-1.31,1.77-4.7,2.02-6.36.68-2.59-2.09-.55-8.41-1.75-9.38-.35-.28-1.01-.04-.98-.52h4.35Z"/>
  <path class="cls-3" d="M322.01,131.4l-.41,1.9c-.55-1.51-1.81-1.05-3.12-1.08v3.8l3.26-.54v2.17c-.79.23-.47-.61-.98-.78-.62-.2-1.59.05-2.28-.04.16.93-.34,3.34.27,3.94.53.54,2.43.49,2.93.07.31-.27.11-1.05.61-1.02l-.04,1.72-.36.45h-6.39c-.25-.86.69-.39.97-.79l.08-9.21-1.32-.58h6.79Z"/>
  <path class="cls-3" d="M336.39,131.69l-.25,2.69c-.46-.02-.31-.77-.57-1.19-.61-1-2.51-1.35-3.61-1.24-4.97.51-4.27,10.09,2.13,9.2,1.53-.21,1.4-.99,2.32-1.88l-.65,2.47c-4.99,1.72-11.04-1.78-8.59-7.5,1.48-3.46,6.12-3.54,9.22-2.55Z"/>
  <path class="cls-3" d="M257.34,131.4l-.27,1.9c-.52-.15-.33-.72-1.07-.97-.69-.23-1.48-.09-2.19-.12v3.8l3.26-.27-.28,2.17-.71-1.05-2.28-.03c.22,1.79-.93,4.47,1.76,4.36,1.21-.05,1.26-.73,2.04-1.37l-.27,2.17h-6.52c-.2-.83.56-.41.97-.79.27-.4.22-8.74-.12-9.14-.37-.44-1.1-.14-1.12-.65h6.79Z"/>
  <path class="cls-3" d="M431.51,141.98l1.05-.98c.66-3.76-1.74-7.17-4.31-9.6h3.53c-.57,1.61,1.28,3.48,2.04,4.88.71-1.48,2.6-3.25,1.77-4.88h3.26s-1.63,1.22-1.63,1.22c-.3.63-2.72,4.07-2.72,4.34v4.48h1.36s0,.54,0,.54h-4.35Z"/>
  <path class="cls-3" d="M198.11,131.4v1.9c-.82.06-.45-.61-1.4-.91-.79-.25-1.6-.18-2.41-.18v8.82l1.36.41v.54h-4.35v-.54s1.09-.41,1.09-.41v-8.82c-1.43.01-2.95-.18-3.8,1.09l.27-2.17c.28-.1.58.27.68.27h8.56Z"/>
  <path class="cls-3" d="M291.3,131.4v1.9c-.93.2-.21-.62-.87-.9-.78-.34-1.83-.13-2.66-.18v3.8l3.26-.13-.28,1.76c-.46.05-.23-.61-.71-.78-.58-.21-1.61.07-2.28-.03v4.62c0,.08,1.34-.16,1.36.54h-4.35c-.22-.88.58-.37.77-.58.44-.49.51-8.85.08-9.36-.37-.44-1.1-.14-1.12-.65h6.79Z"/>
  <path class="cls-3" d="M311.41,131.4v1.9c-.81-1.2-2.17-1.08-3.53-1.09v9.23c0,.08,1.34-.16,1.36.54h-4.35v-.54c.62.25,1.09-.42,1.09-.95v-8.28c-.82,0-1.65-.07-2.46.12-1.11.26-.75.94-1.61.97l.27-1.9h9.24Z"/>
  <path class="cls-3" d="M184.24,133.57c-.5-.1-.36-.81-.82-1.21-.92-.79-2.81-.39-2.92.85-.14,1.58,4.29,3.09,4.25,5.93s-3.69,3.38-5.9,2.53l-.04-2.67c.95-.15.26.85.92,1.65,1,1.21,3.29.7,3.43-.72.23-2.34-5.55-3.89-3.78-7.28,1.05-2,6.33-2.46,4.85.91Z"/>
  <path class="cls-3" d="M246.74,131.4v1.9c-.82.06-.45-.61-1.4-.91-.79-.25-1.6-.18-2.41-.18v8.01c0,1.64,1.03.91,1.63,1.76h-4.35v-.54s.79-.01.79-.01c-.2-.57.3-1.47.3-1.75v-7.47c-.82,0-1.65-.07-2.46.12-1.11.26-.75.94-1.61.97l.27-1.9h9.24Z"/>
  <path class="cls-3" d="M219.57,131.4v1.9c-.41-1.03-3.45-1.59-3.77-.64l.22,8.63,1.37.7h-4.35v-.54c.62.25,1.09-.42,1.09-.95v-8.28c-.82,0-1.65-.07-2.46.12-1.11.26-.75.94-1.61.97l.27-1.9h9.24Z"/>
  <path class="cls-3" d="M392.38,131.4c.05.52-.7.16-.97.52-.5.68.15,7.42-.13,8.81,1.68.84,3.02.6,4.09-.92.07.82-.03,1.61-.68,2.17h-6.39c-.22-.88.58-.32.84-.7.4-.59.4-8.77,0-9.24-.37-.44-1.1-.14-1.12-.65h4.35Z"/>
  <path class="cls-3" d="M157.89,131.4l-1.1.72.13,9.07,1.24.8h-4.35c-.2-.83.56-.41.97-.79.25-.37.25-7.9.14-8.85-.1-.83-.93-.26-1.11-.94h4.08Z"/>
  <path class="cls-3" d="M206.26,131.4c.05.51-.65.14-.96.53-.58.72-.51,9.07-.11,9.5.1.11,1.26-.15,1.34.56h-4.35c-.22-.88.58-.32.84-.7.34-.5.41-8.49.12-9.08-.24-.47-.95-.33-.96-.81h4.08Z"/>
  <path class="cls-3" d="M292.66,157.73l3.4-7.05c.78-.02,1.04,8.29,1.88,8.98.34.28,1.01.04.98.51h-2.99s-.68-5.97-.68-5.97l-2.86,5.97c-.42.39-.97-.92-1.13-1.18-.85-1.45-1.44-3.07-2.27-4.53-.12,1.06-1.05,4.42-.55,5.17.18.27.77.1.68.53h-2.99s1.04-.72,1.04-.72l1.41-8.78c.7-.51,3.5,7.49,4.07,7.06Z"/>
  <path class="cls-3" d="M314.67,150.67l3.4,7.06c1.28-2.06,2.02-4.7,3.33-6.71.17-.26-.03-.48.61-.35.31,1.26.95,8.62,1.54,8.98.38.23,1.18.03,1.18.52h-3.26s-.68-5.97-.68-5.97l-2.99,5.97c-.55.13-.37-.23-.53-.53-.93-1.7-1.6-3.74-2.86-5.17l-.55,5.7h-1.36c.99-2.83.79-6.32,1.62-9.11.12-.39-.15-.47.55-.39Z"/>
  <path class="cls-3" d="M250.82,157.46v-5.57c0-.08-.37-.38-.27-.68h1.36s0,7.74,0,7.74c0,.07-.25,1.45-.68,1.22l-6.66-6.51v5.29c0,.21.73.75.54,1.22h-1.9c-.1-.29.27-.59.27-.68v-8.55c.42-.07.63.04.96.26,2.01,1.3,4.18,4.87,6.37,6.26Z"/>
  <path class="cls-3" d="M326.9,160.17l.82-.94c-.24-1.27.35-7.12-.12-7.77-.27-.36-1.03,0-.97-.52h4.48c1.96,0,2.15,2.83.69,3.94,1.51.81,2.66,2.58,1.48,4.2-.19.26-1.46,1.09-1.63,1.09h-4.76ZM330.91,151.83c-.36-.34-1.08-.35-1.56-.34v3.26c2.07.65,2.82-1.72,1.56-2.92ZM329.35,155.29c.19,1.15-.65,4.13.97,4.35,3.09.41,1.89-4.77-.97-4.35Z"/>
  <path class="cls-3" d="M304.08,150.94l-.82.94c.29,2.21-1.14,7.61,2.32,7.76s2.57-6.2,2.3-8.43h1.36s0,6.11,0,6.11c0,3.45-6.55,4.37-7.55.75-.51-1.84.05-5.24-.36-6.42-.22-.64-1.06-.16-1.05-.71h3.8Z"/>
  <path class="cls-3" d="M263.17,159.65c-1.12-.79-2.73-7.57-4.07-8.97-.56.01-3.05,7.47-3.69,8.51-.5.79-1.02.43-1.33.99h3.25l-.8-.27.67-2.45,3.09-.23.86,2.93c.76,0,1.54.06,2.31.01.31-.01.74.18.67-.26-.34-.01-.69-.06-.96-.26ZM257.62,156.38l1.22-2.99.94,2.99h-2.16Z"/>
  <path class="cls-3" d="M344.27,159.51c-1.29-1.05-2.9-7.06-3.78-8.84l-.61.34-3.74,9.15h1.35c.35-2.5.62-3.61,3.42-3.27.66.08,1.29,2.48,1.21,3.27h3.26c-.05-.45-.67-.28-1.11-.66ZM338.85,156.38l.82-2.99c.33-.26,1.27,2.61,1.36,2.99h-2.18Z"/>
  <path class="cls-3" d="M267.12,150.94c-.4.58-.72.1-.48,1.15.39,1.74,1.86,3.74,2.12,5.63l2.75-6.48,1.33-.03-4.21,8.96c-.46.11-.54-.38-.69-.66-1.22-2.28-1.95-5.11-3.14-7.45l-1.47-1.11h3.8Z"/>
  <path class="cls-3" d="M348.91,152.71l-1.09-.41c-.66-.64,3.49-.16,3.8-.27.06.51-.7.16-.97.52-.24.32-.23,7.59,0,7.91l1.24.8h-3.8v-.54s.82,0,.82,0v-8.01Z"/>
  <path class="cls-3" d="M278.8,150.95l-.83.42.29,8.81h-2.17c-.04-1.99.89-6.89-.04-8.51-.26-.45-.79-.28-.77-.72h3.53Z"/>
  <g>
    <path class="cls-5" d="M66.05,169.68c-.05-18.21.05-36.44-.01-54.66,3.94-2.21,9.87-3.55,13.19.36l.37-.44,1.66-19.09c-5.67-1.55-13.15-2.55-16.43,3.52-2.98-5.88-10.87-5.35-16.18-3.35l1.65,19.37c2.02-1.95,4.13-2.64,6.94-2.45,1.38.09,6.37,1.21,6.64,2.59-.05,18.05.08,36.11,0,54.15-15.86-23.73-36.96-43.91-59.17-61.68,1.61-24.44,3.53-48.93,5.37-73.38.38-5.1.36-10.31,1.24-15.32l10.88-5.43c10.48,1.15,21.29,2.33,31.69-.1,4.14-.97,8.15-2.6,11.23-5.61,3.12,2.9,7.09,4.63,11.22,5.61,10.32,2.45,21.28,1.22,31.69.09l10.9,5.42,6.68,88.1-.3.81c-21.88,18.27-42.26,38.53-59.23,61.49ZM63.6,49.38v28.23h2.45v-28.23h-2.45ZM44.24,61.71c-1.61-1.01-2.67.38-1.8,1.93,3.44,4.55,6.02,12.05,9.52,16.27.55.66,1.05,1.22,1.94.74.48-.32.6-1.4.32-1.91l-9.99-17.04ZM86.08,61.4c-.39.11-.73.63-.97.96-3.51,4.86-6.08,11.48-9.62,16.45-.82,1.5,1.22,2.82,2.2,1.38l10.09-17.61c-.19-.74-.9-1.39-1.7-1.18ZM55.1,63.3c-.6.18-.84.83-.73,1.41.99,2.02,2.69,12.58,3.91,13.49.99.73,1.89-.18,1.98-1.19-1.35-3.85-1.8-8.75-3.26-12.47-.36-.92-.78-1.58-1.91-1.25ZM71.69,78.12l3.58-12.85c.6-1.8-1.61-2.92-2.36-1.26l-3.31,12.44c-.38,1.56.73,2.46,2.09,1.67ZM90.52,72.06l-11.04,11.03,1.79,1.78,11.04-11.03-1.79-1.78ZM49.41,84.09c.36-.36.49-1.31.08-1.71l-9.24-9.23c-.92-.8-2.34-.55-2.4.79l9.85,10.24c.4.41,1.35.28,1.71-.08ZM45.88,88.71c.82-.78-.27-1.86-.93-2.33-4.76-3.43-11.26-5.94-16.14-9.4-1.64-.68-2.88.62-1.69,2.03l16.94,9.89c.48.27,1.44.17,1.82-.19ZM101.3,76.88l-17.03,9.87c-1.43,1.18-.07,2.97,1.55,2.09l17.15-10.29c.28-1.25-.42-1.93-1.66-1.66ZM29.29,89.09c-.81.23-.99,1.39-.49,2.02l13.53,3.84c1.65-.21,2.03-1.86.42-2.57-1.82-.8-10.48-3.04-12.5-3.27-.34-.04-.6-.12-.95-.02ZM99.41,89.1c-3.85.54-8.48,2.67-12.44,3.33-1.11.27-1.18,1.94-.19,2.39l13.86-3.39c1.33-.76.54-2.59-1.24-2.34ZM20.92,98.28v2.44h21.99v-2.44h-21.99ZM86.95,98.28v2.44h21.79v-2.44h-21.79Z"/>
    <path class="cls-3" d="M63.88,169.68c0,2.3.07,4.62,0,6.93,0,.27.15.92-.27.54C46.96,151.06,24.43,129.21.28,110.11l-.28-1.38L6.86,16.33l14.79-7.1c8.71,1.1,18.08,2.09,26.84,1.05,5.74-.68,11.85-2.37,15.06-7.48.38-.61,1.1-2.8,1.82-2.8.71,1.28,1.21,2.7,2.09,3.89,7,9.52,30.7,6.67,41.09,5.34l14.7,7.32,6.95,92.44-.41,1.24c-23.76,19.77-46.16,41.66-63.61,67.3-.25-2.6-.13-5.26-.13-7.87,16.97-22.96,37.35-43.22,59.23-61.49l.3-.81-6.68-88.1-10.9-5.42c-10.41,1.14-21.37,2.36-31.69-.09-4.13-.98-8.1-2.71-11.22-5.61-3.07,3-7.09,4.64-11.23,5.61-10.4,2.43-21.2,1.25-31.69.1l-10.88,5.43c-.88,5.02-.85,10.22-1.24,15.32-1.85,24.45-3.76,48.94-5.37,73.38,22.21,17.77,43.31,37.95,59.17,61.68Z"/>
    <rect class="cls-1" x="63.6" y="49.38" width="2.45" height="28.23"/>
    <path class="cls-7" d="M86.08,61.4c.8-.22,1.51.43,1.7,1.18l-10.09,17.61c-.97,1.44-3.02.13-2.2-1.38,3.54-4.98,6.11-11.59,9.62-16.45.23-.32.58-.85.97-.96Z"/>
    <path class="cls-7" d="M101.3,76.88c1.24-.27,1.94.42,1.66,1.66l-17.15,10.29c-1.61.89-2.98-.9-1.55-2.09l17.03-9.87Z"/>
    <path class="cls-4" d="M45.88,88.71c-.38.36-1.34.46-1.82.19l-16.94-9.89c-1.19-1.42.06-2.71,1.69-2.03,4.88,3.46,11.38,5.96,16.14,9.4.66.47,1.74,1.55.93,2.33Z"/>
    <path class="cls-4" d="M44.24,61.71l9.99,17.04c.28.5.17,1.58-.32,1.91-.9.48-1.4-.08-1.94-.74-3.5-4.22-6.08-11.73-9.52-16.27-.87-1.55.19-2.94,1.8-1.93Z"/>
    <rect class="cls-2" x="20.92" y="98.28" width="21.99" height="2.44"/>
    <rect class="cls-6" x="86.95" y="98.28" width="21.79" height="2.44"/>
    <path class="cls-7" d="M29.29,89.09c.36-.1.61-.02.95.02,2.02.23,10.68,2.47,12.5,3.27,1.61.71,1.23,2.36-.42,2.57l-13.53-3.84c-.5-.63-.32-1.79.49-2.02Z"/>
    <path class="cls-7" d="M55.1,63.3c1.13-.34,1.55.32,1.91,1.25,1.45,3.72,1.91,8.62,3.26,12.47-.09,1.01-1,1.92-1.98,1.19-1.23-.91-2.92-11.47-3.91-13.49-.11-.58.13-1.24.73-1.41Z"/>
    <path class="cls-7" d="M99.41,89.1c1.78-.25,2.56,1.58,1.24,2.34l-13.86,3.39c-.99-.46-.92-2.12.19-2.39,3.96-.66,8.58-2.8,12.44-3.33Z"/>
    <path class="cls-7" d="M71.69,78.12c-1.35.79-2.47-.11-2.09-1.67l3.31-12.44c.75-1.66,2.96-.53,2.36,1.26l-3.58,12.85Z"/>
    <rect class="cls-7" x="78.08" y="77.2" width="15.61" height="2.52" transform="translate(-30.32 83.77) rotate(-45.03)"/>
    <path class="cls-7" d="M49.41,84.09c-.36.36-1.31.49-1.71.08l-9.85-10.24c.06-1.34,1.48-1.58,2.4-.79l9.24,9.23c.41.4.28,1.35-.08,1.71Z"/>
  </g>
</svg>