<?xml version="1.0" encoding="UTF-8"?>
<svg id="Layer_2" data-name="Layer 2" xmlns="http://www.w3.org/2000/svg" viewBox="0 0 26.81 20.25">
  <defs>
    <style>
      .cls-1, .cls-2 {
        fill: #fff;
      }

      .cls-2 {
        fill-rule: evenodd;
      }
    </style>
  </defs>
  <g id="Layer_1-2" data-name="Layer 1">
    <g id="module_header" data-name="module header">
      <g id="Prod_Unit_conf_-_sadmin" data-name="Prod Unit conf - sadmin">
        <path class="cls-2" d="M13.69,14.1c.41.41.41,1.06,0,1.48l-1.77.59-.3-.3.59-1.77c.43-.39,1.07-.39,1.5.02h0l-.02-.02h0ZM21.85,3.25l-10.4,10.42-1.3,3.95,3.97-1.3,10.4-10.4"/>
        <path class="cls-2" d="M26.56,2.7l-1.48-1.48c-.34-.34-.86-.34-1.2,0l-1.46,1.46,2.66,2.65,1.46-1.46c.36-.3.36-.84.02-1.16h0Z"/>
        <path class="cls-1" d="M20.25,3.75V1.13c0-.62-.5-1.13-1.13-1.13H1.13C.5,0,0,.5,0,1.13v17.99c0,.62.5,1.13,1.13,1.13h17.99c.62,0,1.13-.5,1.13-1.13v-7.49l-1.36,1.36v5.92H1.36V1.36h17.55v3.75l1.36-1.36h-.02Z"/>
        <rect class="cls-1" x="4.38" y="6.29" width="10.49" height="1.45"/>
        <rect class="cls-1" x="4.38" y="9.4" width="7.7" height="1.45"/>
        <rect class="cls-1" x="4.38" y="12.51" width="4.83" height="1.45"/>
      </g>
    </g>
  </g>
</svg>