<?xml version="1.0" encoding="UTF-8"?>
<svg id="Layer_2" data-name="Layer 2" xmlns="http://www.w3.org/2000/svg" xmlns:xlink="http://www.w3.org/1999/xlink" viewBox="0 0 44.74 53.68">
  <defs>
    <style>
      .cls-1 {
        fill: #fff;
      }

      .cls-2 {
        fill: url(#linear-gradient-7);
      }

      .cls-2, .cls-3, .cls-4, .cls-5, .cls-6 {
        isolation: isolate;
        opacity: .8;
      }

      .cls-3 {
        fill: url(#linear-gradient-6);
      }

      .cls-4 {
        fill: url(#linear-gradient-5);
      }

      .cls-5 {
        fill: url(#linear-gradient-8);
      }

      .cls-7 {
        fill: url(#linear-gradient);
      }

      .cls-8 {
        fill: url(#linear-gradient-2);
        stroke: url(#linear-gradient-3);
        stroke-miterlimit: 10;
      }

      .cls-6 {
        fill: url(#linear-gradient-4);
      }
    </style>
    <linearGradient id="linear-gradient" x1="0" y1="15" x2="25" y2="15" gradientUnits="userSpaceOnUse">
      <stop offset="0" stop-color="#5bb947"/>
      <stop offset="1" stop-color="#0c8040"/>
    </linearGradient>
    <linearGradient id="linear-gradient-2" x1=".9" y1="14.6" x2="12.5" y2="14.6" xlink:href="#linear-gradient"/>
    <linearGradient id="linear-gradient-3" x1=".4" y1="14.6" x2="13" y2="14.6" xlink:href="#linear-gradient"/>
    <linearGradient id="linear-gradient-4" x1="14.7" y1="9.05" x2="22.4" y2="9.05" xlink:href="#linear-gradient"/>
    <linearGradient id="linear-gradient-5" x1="14.7" y1="11.85" x2="22.4" y2="11.85" xlink:href="#linear-gradient"/>
    <linearGradient id="linear-gradient-6" x1="14.7" y1="14.65" x2="22.4" y2="14.65" xlink:href="#linear-gradient"/>
    <linearGradient id="linear-gradient-7" x1="14.7" y1="17.45" x2="22.4" y2="17.45" xlink:href="#linear-gradient"/>
    <linearGradient id="linear-gradient-8" x1="14.7" y1="20.25" x2="22.4" y2="20.25" xlink:href="#linear-gradient"/>
    <symbol id="Excel" viewBox="0 0 25 30">
      <g id="export_to_excel_icon" data-name="export to excel icon">
        <path class="cls-7" d="M25,5.8l-.5-.5L19.7.5l-.5-.5H2.4C1.1,0,0,1.1,0,2.4v25.2c0,1.3,1.1,2.4,2.4,2.4h20.2c1.3,0,2.4-1.1,2.4-2.4V5.8h0ZM22.6,29H2.4c-.8,0-1.4-.6-1.4-1.5V2.3c0-.8.6-1.5,1.4-1.5h16.8v4.8h4.8v22c0,.8-.6,1.5-1.4,1.5h0v-.1Z"/>
        <g>
          <rect class="cls-8" x=".9" y="8.8" width="11.5" height="11.6" rx="1.1" ry="1.1"/>
          <polygon class="cls-1" points="11.3 19.6 7.7 14.4 11.1 9.6 9.6 9.6 6.8 13.5 4 9.6 2.3 9.6 5.9 14.5 2.2 19.6 3.7 19.6 6.8 15.4 9.7 19.6 11.3 19.6"/>
        </g>
        <g>
          <rect class="cls-6" x="14.7" y="8.3" width="7.6" height="1.5" rx=".7" ry=".7"/>
          <rect class="cls-4" x="14.7" y="11.1" width="7.6" height="1.5" rx=".7" ry=".7"/>
          <rect class="cls-3" x="14.7" y="13.9" width="7.6" height="1.5" rx=".7" ry=".7"/>
          <rect class="cls-2" x="14.7" y="16.7" width="7.6" height="1.5" rx=".7" ry=".7"/>
          <rect class="cls-5" x="14.7" y="19.5" width="7.6" height="1.5" rx=".7" ry=".7"/>
        </g>
      </g>
    </symbol>
  </defs>
  <g id="Layer_1-2" data-name="Layer 1">
    <g id="PR_Log" data-name="PR Log">
      <use width="25" height="30" transform="scale(1.79)" xlink:href="#Excel"/>
    </g>
  </g>
</svg>