<?xml version="1.0" encoding="UTF-8"?>
<svg id="Layer_2" xmlns="http://www.w3.org/2000/svg" version="1.1" viewBox="0 0 21.1 18.1">
  <!-- Generator: Adobe Illustrator 29.6.1, SVG Export Plug-In . SVG Version: 2.1.1 Build 9)  -->
  <defs>
    <style>
      .st0 {
        fill: #fff;
        isolation: isolate;
      }
    </style>
  </defs>
  <g id="PR_Log">
    <path class="st0" d="M21.1,7.5l-3.8-2.7V.5c0-.1,0-.2-.2-.2h-2.3c-.1,0-.2,0-.2.2v2.4l-4-2.8L0,7.5l.8.9c.5.6,1.4.7,2,.3h0s0,9.3,0,9.3h15.5v-9.3h0c.6.5,1.5.3,2-.3l.8-.9h0ZM16.8,16.7h-3.5v-2.7c0-1.5-1.2-2.7-2.7-2.7h0c-1.5,0-2.7,1.2-2.7,2.7v2.7h-3.5V7.8l6.2-4.5,6.2,4.5v8.8h0Z"/>
  </g>
</svg>