<?xml version="1.0" encoding="UTF-8"?>
<svg id="Layer_2" data-name="Layer 2" xmlns="http://www.w3.org/2000/svg" viewBox="0 0 22.37 23.49">
  <defs>
    <style>
      .cls-1 {
        fill: #fff;
      }
    </style>
  </defs>
  <g id="Layer_1-2" data-name="Layer 1">
    <path id="inbox-download" class="cls-1" d="M22.27,13.46h0s0-.03,0-.04c-.01-.08-.03-.16-.05-.24,0-.03-.02-.05-.03-.08-.05-.22-.12-.43-.2-.63l-2.26-5.28c-.57-1.34-1.11-2.6-3.95-2.6-.47,0-.86.38-.86.86s.38.86.86.86c1.7,0,1.85.36,2.37,1.56l2.03,4.73h-3.23c-1.48.03-2.84.86-3.55,2.16-.72,1.23-2.3,1.64-3.53.92-.38-.22-.7-.54-.92-.92-.71-1.3-2.06-2.13-3.55-2.16h-3.23l2.03-4.73c.51-1.2.67-1.56,2.37-1.56.47,0,.86-.38.86-.86s-.38-.86-.86-.86c-2.83,0-3.37,1.26-3.95,2.6L.37,12.46c-.08.2-.15.42-.2.63-.01.03-.02.05-.03.08-.02.08-.03.16-.05.24,0,0,0,.02,0,.03H.1c-.04.24-.07.47-.07.71v5.02c-.25,2.12,1.28,4.05,3.4,4.29.29.03.59.03.89,0h13.73c2.12.25,4.05-1.28,4.29-3.4.03-.3.03-.6,0-.89v-5.02c0-.23-.03-.47-.07-.69h0ZM18.05,21.75H4.31c-1.8,0-2.58-.77-2.58-2.58v-4.86h3.67c.87.04,1.66.54,2.07,1.31,1.2,2.05,3.83,2.73,5.88,1.53.63-.37,1.16-.9,1.53-1.53.41-.77,1.19-1.27,2.07-1.31h3.66v4.87c0,1.8-.76,2.58-2.57,2.58ZM8.29,8.33c-.32-.35-.3-.89.04-1.21.33-.31.84-.31,1.17,0l.82.82V.86c0-.47.38-.86.86-.86s.86.38.86.86v7.08l.82-.82c.35-.32.89-.3,1.21.04.31.33.31.84,0,1.17l-2.29,2.29c-.34.33-.88.33-1.21,0l-2.29-2.29Z"/>
  </g>
</svg>