<?xml version="1.0" encoding="UTF-8"?>
<svg id="Layer_2" data-name="Layer 2" xmlns="http://www.w3.org/2000/svg" viewBox="0 0 70.94 47.7">
  <defs>
    <style>
      .cls-1 {
        fill: #fff;
      }
    </style>
  </defs>
  <g id="Layer_1-2" data-name="Layer 1">
    <g>
      <path class="cls-1" d="M69.94,47.7H2.57c-1.42,0-2.57-1.15-2.57-2.57V1C0,.45.45,0,1,0s1,.45,1,1v43.19c0,.83.68,1.51,1.51,1.51h66.42c.55,0,1,.45,1,1s-.45,1-1,1Z"/>
      <rect class="cls-1" x="4.11" y="22.59" width="8.3" height="21.17" rx="1" ry="1"/>
      <rect class="cls-1" x="14.38" y="14.59" width="8.3" height="29.17" rx="1" ry="1"/>
      <rect class="cls-1" x="24.66" y="2.85" width="8.3" height="40.91" rx="1" ry="1"/>
      <rect class="cls-1" x="34.94" y="20.12" width="8.3" height="23.64" rx="1" ry="1"/>
      <rect class="cls-1" x="45.21" y="8.55" width="8.3" height="35.21" rx="1" ry="1"/>
      <rect class="cls-1" x="55.49" y="26.76" width="8.3" height="17" rx="1" ry="1"/>
    </g>
  </g>
</svg>