<?xml version="1.0" encoding="UTF-8"?>
<svg id="Layer_2" data-name="Layer 2" xmlns="http://www.w3.org/2000/svg" viewBox="0 0 37.84 49.45">
  <defs>
    <style>
      .cls-1 {
        fill: #fff;
      }
    </style>
  </defs>
  <g id="Layer_1-2" data-name="Layer 1">
    <g>
      <rect class="cls-1" x="5.92" y="15.09" width="23.15" height="1.96" rx=".98" ry=".98"/>
      <rect class="cls-1" x="5.92" y="20.32" width="21.07" height="1.96" rx=".98" ry=".98"/>
      <rect class="cls-1" x="5.92" y="25.54" width="13.03" height="1.96" rx=".98" ry=".98"/>
      <rect class="cls-1" x="5.92" y="30.77" width="15.07" height="1.96" rx=".98" ry=".98"/>
      <rect class="cls-1" x="5.92" y="36" width="13.03" height="1.96" rx=".98" ry=".98"/>
      <rect class="cls-1" x="5.92" y="41.22" width="13.03" height="1.96" rx=".98" ry=".98"/>
      <path class="cls-1" d="M32.09,5.83h-6.61v-1.4c0-.49-.4-.89-.89-.89h-2.75c-.41-2.02-2.2-3.54-4.34-3.54s-3.93,1.52-4.34,3.54h-2.75c-.49,0-.89.4-.89.89v1.4H2.9c-1.6,0-2.9,1.3-2.9,2.9v37.23c0,1.6,1.3,2.9,2.9,2.9h18.42c.5,0,.9-.4.9-.9h0c0-.5-.4-.9-.9-.9H2.9c-.61,0-1.1-.5-1.1-1.1V8.73c0-.61.5-1.1,1.1-1.1h6.62v.35c0,1.46,1.19,2.65,2.66,2.65h10.65c1.46,0,2.65-1.19,2.65-2.65v-.35h6.61c.61,0,1.11.5,1.11,1.11v23.15c0,.49.4.89.89.89h0c.49,0,.89-.4.89-.89V8.73c0-1.6-1.3-2.9-2.9-2.9ZM23.7,7.98c0,.48-.39.88-.88.88h-10.64c-.49,0-.89-.4-.89-.88v-2.66h2.65c.47,0,.91-.38.9-.85-.03-2.06,2.26-3.59,4.42-2.13.67.45.92,1.25.9,2.05-.02.5.39.92.89.92h2.65v2.66Z"/>
      <path class="cls-1" d="M22.39,36.71l2.92,2.92-1.99,5.97c-.06.19-.02.4.13.53l.95.95c.24.24.64.19.81-.1l2.79-4.66,2.76,2.76v3.23c0,.14.05.27.15.37l.62.62c.25.25.69.18.84-.14l1.65-3.52,3.52-1.65c.33-.15.41-.59.14-.84l-.62-.62c-.1-.1-.23-.15-.37-.15h-3.23l-2.76-2.76,4.66-2.79c.29-.17.34-.58.1-.81l-.95-.95c-.14-.14-.34-.19-.53-.13l-5.97,1.99-2.92-2.92c-.75-.75-1.96-.75-2.7,0s-.75,1.96,0,2.7Z"/>
    </g>
  </g>
</svg>