<?xml version="1.0" encoding="UTF-8"?>
<svg id="Layer_2" data-name="Layer 2" xmlns="http://www.w3.org/2000/svg" viewBox="0 0 33.4 15.11">
  <defs>
    <style>
      .cls-1 {
        fill: #921a1e;
      }
    </style>
  </defs>
  <g id="Layer_1-2" data-name="Layer 1">
    <path class="cls-1" d="M32.95,7.4l-3.42-2.28c.96-1.03,1.86-2.23,2.63-3.65.26-.49.08-1.09-.4-1.36-.48-.26-1.09-.08-1.36.4-2.59,4.78-6.83,6.88-9.94,7.8-2.61.77-5.48.7-8.09-.2C5.98,5.91,3.03.58,3,.53,2.73.04,2.13-.14,1.64.12c-.48.26-.67.87-.41,1.35.07.13.95,1.72,2.75,3.57L.45,7.4c-.46.31-.58.93-.28,1.39.19.29.51.45.83.45.19,0,.38-.05.55-.17l3.93-2.62c.86.72,1.86,1.44,3,2.09l-2.14,3.01c-.32.45-.21,1.07.24,1.39.18.12.38.18.58.18.31,0,.62-.15.82-.42l2.31-3.26c.46.2.93.39,1.42.56,1.29.45,2.63.71,3.98.8v3.3c0,.55.45,1,1,1s1-.45,1-1v-3.29c1.13-.07,2.25-.26,3.33-.58.66-.2,1.37-.44,2.11-.75l2.28,3.22c.2.27.5.42.82.42.2,0,.4-.06.58-.18.45-.32.56-.94.24-1.39l-2.08-2.94c1.03-.56,2.07-1.24,3.07-2.08l3.81,2.53c.17.11.36.17.55.17.32,0,.64-.16.83-.45.31-.46.18-1.08-.28-1.39Z"/>
  </g>
</svg>