<?xml version="1.0" encoding="UTF-8"?>
<svg id="Layer_2" xmlns="http://www.w3.org/2000/svg" version="1.1" viewBox="0 0 16.8 13.6">
  <!-- Generator: Adobe Illustrator 29.6.1, SVG Export Plug-In . SVG Version: 2.1.1 Build 9)  -->
  <defs>
    <style>
      .st0 {
        fill: #fff;
        isolation: isolate;
      }
    </style>
  </defs>
  <g id="PR_Log">
    <path class="st0" d="M9,13.6c-.1,0-.2,0-.3-.1L0,6.8,8.6.1c.1,0,.2-.1.3-.1.2,0,.4.1.5.4,0,.2.1.4,0,.6s-.1.4-.3.5L3.4,6h12.8c.3,0,.6.3.6.8s-.3.8-.6.8H3.4l5.9,4.6c.1.1.2.3.3.5s0,.4,0,.6c-.1.2-.3.4-.5.4h0Z"/>
  </g>
</svg>