<?xml version="1.0" encoding="UTF-8"?>
<svg id="Layer_1" data-name="Layer 1" xmlns="http://www.w3.org/2000/svg" viewBox="0 0 39.91 39.91">
  <defs>
    <style>
      .cls-1 {
        fill: #fff;
      }

      .cls-2 {
        fill: #93001a;
      }
    </style>
  </defs>
  <circle class="cls-2" cx="19.96" cy="19.96" r="19.96"/>
  <path class="cls-1" d="M20.57,24.94c-1.93-.7-4.52-2.53-4.52-4.83,0-1.53.86-2.81,3.73-4.88,2.75-1.94,3.65-3.01,3.65-4.09s-.77-1.96-2.18-1.96c-2.85,0-4.67,3.08-5.4,3.08-.8,0-2.07-1.22-2.07-2.48,0-.71.28-1.08.86-1.65,1.32-1.12,3.28-1.58,4.67-1.58,3.94,0,6.82,3.29,6.82,6.56,0,1.59-.45,3.12-2.84,4.88-2.57,1.87-3.15,2.49-3.15,3.62,0,.79.4,1.37,1.32,2.36l-.88.98ZM19.58,33.36c-1.68,0-2.95-1.26-2.95-3.05s1.25-3.03,2.95-3.03,2.97,1.29,2.97,3.03-1.25,3.05-2.97,3.05Z"/>
</svg>