<?xml version="1.0" encoding="UTF-8"?>
<svg id="Layer_2" data-name="Layer 2" xmlns="http://www.w3.org/2000/svg" xmlns:xlink="http://www.w3.org/1999/xlink" viewBox="0 0 25.36 25.36">
  <defs>
    <style>
      .cls-1 {
        fill: none;
        stroke: #fff;
        stroke-miterlimit: 10;
        stroke-width: .5px;
      }

      .cls-2 {
        fill: url(#radial-gradient);
      }
    </style>
    <radialGradient id="radial-gradient" cx="8.85" cy="-.52" fx="8.85" fy="-.52" r="24.84" gradientUnits="userSpaceOnUse">
      <stop offset="0" stop-color="#ec1e27"/>
      <stop offset="1" stop-color="#7d0f12"/>
    </radialGradient>
  </defs>
  <g id="Layer_1-2" data-name="Layer 1">
    <g>
      <path id="Path_16" data-name="Path 16" class="cls-2" d="M12.62,25.36c-.51,0-1.03-.64-1.54-1.16-.26-.51-.77-.9-1.29-1.16h-.26c-.51,0-1.03.13-1.42.39-.39.26-.9.39-1.42.39h-.39c-.51-.26-.51-1.03-.64-1.8.13-1.03-.64-2.06-1.67-2.32h-.51c-.77,0-1.54-.26-1.8-.64s0-1.16.26-1.8c.26-.51.39-1.16.39-1.8-.26-.51-.64-1.03-1.16-1.29-.64-.51-1.16-.9-1.16-1.54s.64-1.03,1.16-1.54c.51-.26.9-.77,1.16-1.29,0-.64,0-1.29-.39-1.8-.26-.64-.51-1.42-.26-1.8s1.03-.51,1.8-.64c1.03.13,2.06-.64,2.32-1.67v-.51c0-.77.26-1.54.64-1.8h.39c.51,0,.9.13,1.42.39s.9.39,1.42.39h.26c.51-.26,1.03-.64,1.29-1.16.51-.64.9-1.16,1.54-1.16s1.03.64,1.54,1.16c.26.51.77.9,1.29,1.16h.26c.51,0,1.03-.13,1.42-.39s.9-.39,1.42-.39h.39c.51.26.51,1.03.64,1.8-.13,1.03.64,2.06,1.67,2.32s.39,0,.51,0c.77,0,1.54.26,1.8.64s0,1.16-.26,1.8c-.26.51-.39,1.16-.39,1.8.26.51.64,1.03,1.16,1.29.64.51,1.16.9,1.16,1.54s-.64,1.03-1.16,1.54c-.51.26-.9.77-1.16,1.29,0,.64,0,1.29.39,1.8.26.64.51,1.42.26,1.8s-1.03.51-1.8.64c-1.03-.13-2.06.64-2.32,1.67v.51c0,.77-.26,1.54-.64,1.8h-.39c-.51,0-.9-.13-1.42-.39-.51-.26-.9-.39-1.42-.39h-.26c-.51.26-1.03.64-1.29,1.16-.51.64-.9,1.16-1.54,1.16Z"/>
      <circle class="cls-1" cx="12.68" cy="12.68" r="7.96"/>
    </g>
  </g>
</svg>