<?xml version="1.0" encoding="UTF-8"?>
<svg id="Layer_2" data-name="Layer 2" xmlns="http://www.w3.org/2000/svg" viewBox="0 0 26.54 24.15">
  <defs>
    <style>
      .cls-1 {
        fill: #fff;
      }
    </style>
  </defs>
  <g id="Layer_1-2" data-name="Layer 1">
    <g>
      <g id="item_master" data-name="item master">
        <path class="cls-1" d="M26.34,10.5c-.19-.75-.48-1.24-.9-1.63-.33-.29-.65-.42-1.03-.43l-.92-.02c-.23,0-.31-.08-.35-.3l-.04-.28c-.04-.27-.08-.54-.14-.81-.46-1.88-1.45-3.49-2.96-4.77-.98-.83-2.1-1.44-3.35-1.82-.69-.22-1.4-.35-2.11-.4-.28-.02-.57-.02-.84-.04h-.64c-.98,0-1.85.1-2.65.31-1.51.4-2.85,1.12-3.98,2.15-1.07.97-1.88,2.15-2.4,3.5-.25.66-.4,1.36-.49,1.97-.04.24-.12.31-.39.33h-.72c-.42,0-.75.08-1.03.28-.36.24-.64.58-.86,1.03-.39.81-.48,1.68-.51,2.35-.01.37-.02.75-.02,1.12v.47c0,.51-.02,1.03.1,1.53.16.72.46,1.22.93,1.58.35.27.68.4,1.01.41h1.17l.52.02h1.35c.17,0,.35,0,.52-.04.46-.08.87-.53.88-.98l.05-4.6c0-.65,0-1.3.02-1.95.01-.52-.3-1.11-1.03-1.19-.12-.01-.21-.04-.25-.1-.05-.06-.05-.16-.02-.29.11-.68.31-1.31.6-1.92.86-1.76,2.24-3.04,4.11-3.79.68-.28,1.39-.45,2.09-.49.42-.04.86-.04,1.28-.04h.21c.64,0,1.17.05,1.65.13,1.79.34,3.28,1.18,4.44,2.51.98,1.11,1.56,2.39,1.74,3.81.01.12.01.19-.04.25-.05.05-.12.06-.23.07-.59.02-1.06.51-1.06,1.1l-.06,5.86c0,.31,0,.63.04.93.05.41.46.78.92.83.16.01.31.02.47.04h.3c.07.02.13.04.18.08.04.05.04.11.01.19-.19.8-.41,1.42-.69,2-.4.83-.84,1.41-1.4,1.85-.57.43-1.19.66-1.86.68h-1.97c-.19,0-.33-.07-.43-.24-.35-.57-.86-.84-1.62-.84h-1.27c-.19-.01-.39,0-.58.01-.46.06-.86.3-1.12.68-.29.41-.36.93-.21,1.4.23.69.83,1.1,1.6,1.12h.13c.33,0,.65.02.97.02h.29c.25,0,.54-.02.81-.08.4-.1.71-.34.94-.7.1-.16.23-.23.43-.23h0c.45,0,.88.01,1.33.01h.41c.54,0,.99-.06,1.39-.17.99-.29,1.8-.87,2.47-1.77.54-.71.94-1.54,1.28-2.61.1-.3.17-.6.25-.9l.06-.24s.06-.22.3-.22h.84c.08,0,.17,0,.27-.01.53-.07.98-.34,1.34-.78.39-.48.6-1.1.64-1.86.02-.49.02-.98.02-1.47v-.64c.01-.75-.05-1.36-.21-1.93v-.05Z"/>
      </g>
      <path class="cls-1" d="M13.92,8.5l.21.13c-.04.43-.07.9-.08,1.41-.04,1.67-.06,2.9-.06,3.69,0,.74.03,1.38.08,1.9.02.21.08.35.16.43.09.08.29.14.62.18l.58.08v.5c-.83-.04-1.59-.06-2.28-.06s-1.35.02-2.04.06v-.5l.74-.08c.28-.02.46-.08.53-.16.07-.08.11-.36.12-.83.03-.73.04-1.73.04-3.01,0-.89-.01-1.57-.04-2.05-.01-.18-.06-.3-.15-.38s-.29-.11-.6-.11h-.64v-.5c.7-.1,1.21-.19,1.54-.28s.75-.23,1.27-.43ZM13.24,4.71c.26,0,.49.1.68.29.19.19.28.42.28.69s-.09.5-.28.69c-.19.19-.41.28-.68.28s-.5-.09-.69-.28c-.19-.19-.28-.42-.28-.69s.09-.5.28-.69c.19-.19.42-.29.69-.29Z"/>
    </g>
  </g>
</svg>