<?xml version="1.0" encoding="UTF-8"?>
<svg id="Layer_2" data-name="Layer 2" xmlns="http://www.w3.org/2000/svg" viewBox="0 0 16.4 16.4">
  <defs>
    <style>
      .cls-1, .cls-2 {
        fill: #fff;
      }

      .cls-2 {
        fill-rule: evenodd;
      }
    </style>
  </defs>
  <g id="Layer_1-2" data-name="Layer 1">
    <g>
      <g id="icons">
        <path class="cls-1" d="M8.2,16.4C3.67,16.4,0,12.72,0,8.2S3.67,0,8.2,0s8.2,3.67,8.2,8.2-3.67,8.2-8.2,8.2h0ZM8.2.83C4.14.83.83,4.14.83,8.2s3.31,7.37,7.37,7.37,7.37-3.31,7.37-7.37S12.27.83,8.2.83Z"/>
      </g>
      <g>
        <path class="cls-2" d="M8.2,9.1c-2.21,0-4.08,1.2-4.08,2.63,0,1.84,3.07,1.84,4.08,1.84,1.75,0,4.08-.19,4.08-1.83,0-1.43-1.87-2.64-4.08-2.64Z"/>
        <path class="cls-2" d="M8.2,8.27h.02c.72,0,1.4-.29,1.91-.8.51-.51.79-1.19.79-1.91,0-1.5-1.22-2.71-2.71-2.71s-2.71,1.22-2.71,2.71,1.22,2.71,2.71,2.71Z"/>
      </g>
    </g>
  </g>
</svg>