<?xml version="1.0" encoding="UTF-8"?>
<svg id="Layer_2" data-name="Layer 2" xmlns="http://www.w3.org/2000/svg" viewBox="0 0 29 23.63">
  <defs>
    <style>
      .cls-1 {
        fill: #fff;
        fill-rule: evenodd;
      }
    </style>
  </defs>
  <g id="Layer_1-2" data-name="Layer 1">
    <g>
      <path class="cls-1" d="M22.18,12.18c-1.35,0-2.62.27-3.69.74,3.74,1.08,6.39,3.67,6.46,6.69,1.95-.25,4.05-.99,4.05-2.99,0-2.41-3.12-4.44-6.81-4.44Z"/>
      <path class="cls-1" d="M22.15,10.47h.02c2.53,0,4.59-2.07,4.59-4.58s-2.07-4.59-4.59-4.59c-.5,0-.97.08-1.42.23.82,1.21,1.29,2.67,1.29,4.25.01,1.6-.49,3.15-1.42,4.43.49.18,1,.27,1.53.27Z"/>
      <path class="cls-1" d="M10.49,12.9c-1.07-.45-2.34-.72-3.68-.72-3.69,0-6.81,2.03-6.81,4.44,0,2.01,2.09,2.73,4.04,2.99.06-3.03,2.71-5.61,6.46-6.71Z"/>
      <path class="cls-1" d="M6.81,10.47h.04c.53,0,1.04-.09,1.53-.27-.9-1.23-1.44-2.77-1.44-4.43s.47-3.04,1.29-4.25c-.45-.14-.93-.23-1.42-.23-2.53,0-4.58,2.07-4.58,4.59s2.05,4.58,4.58,4.58Z"/>
      <path class="cls-1" d="M14.49,14.12c-4.7,0-8.67,2.56-8.67,5.59,0,3.92,6.53,3.92,8.67,3.92,3.72,0,8.68-.4,8.68-3.89,0-3.04-3.97-5.61-8.68-5.61Z"/>
      <path class="cls-1" d="M14.49,11.55h.04c1.54,0,2.98-.61,4.06-1.7,1.08-1.09,1.68-2.54,1.67-4.07,0-3.18-2.59-5.77-5.77-5.77s-5.77,2.59-5.77,5.77,2.59,5.77,5.77,5.77Z"/>
    </g>
  </g>
</svg>