<?xml version="1.0" encoding="UTF-8"?>
<svg id="Layer_2" data-name="Layer 2" xmlns="http://www.w3.org/2000/svg" viewBox="0 0 29.16 18.06">
  <defs>
    <style>
      .cls-1 {
        fill: #fff;
      }

      .cls-2 {
        fill: #921a1e;
      }
    </style>
  </defs>
  <g id="Layer_1-2" data-name="Layer 1">
    <g id="bom_summary" data-name="bom summary">
      <path class="cls-2" d="M14.58,0C6.52,0,0,7.22,0,9.03s6.52,9.03,14.58,9.03,14.58-7.22,14.58-9.03S22.64,0,14.58,0ZM23.45,13.07c-1.99,1.47-5.15,3.18-8.87,3.18s-6.88-1.74-8.87-3.18c-2.35-1.72-3.57-3.39-3.88-4.04.32-.63,1.53-2.3,3.88-4.04,1.99-1.47,5.15-3.18,8.87-3.18s6.88,1.74,8.87,3.18c2.35,1.72,3.57,3.39,3.88,4.04-.32.63-1.53,2.3-3.88,4.04Z"/>
      <path class="cls-2" d="M14.58,1.81c-3.54,0-6.43,2.73-6.43,6.09s2.89,6.09,6.43,6.09,6.43-2.73,6.43-6.09-2.89-6.09-6.43-6.09Z"/>
      <path class="cls-1" d="M9.91,9.39c-1.76-3.52,2.75-7.76,6.18-5.64-2.87,1.51-4.33,2.73-6.18,5.64h0Z"/>
    </g>
  </g>
</svg>