<?xml version="1.0" encoding="UTF-8"?>
<svg id="Layer_1" data-name="Layer 1" xmlns="http://www.w3.org/2000/svg" viewBox="0 0 130.2 179.88">
  <defs>
    <style>
      .cls-1 {
        fill: #fcfafb;
      }

      .cls-2 {
        fill: #fdfbfc;
      }

      .cls-3 {
        fill: #fff;
      }

      .cls-4 {
        fill: #fbf8f9;
      }

      .cls-5 {
        fill: #9e1c33;
      }

      .cls-6 {
        fill: #fefdfd;
      }

      .cls-7 {
        fill: #fbf7f8;
      }
    </style>
  </defs>
  <polygon class="cls-3" points="44.54 90.77 86.23 90.77 85.89 152.25 73.89 162.46 66.18 177.55 65.1 179.88 63.6 177.14 58.65 162.23 52.51 152.72 47.6 103.34 44.54 90.77"/>
  <path class="cls-6" d="M66.05,169.68c0,2.61-.12,5.27.13,7.87,17.44-25.64,39.85-47.53,63.61-67.3l.41-1.24-6.95-92.44-14.7-7.32c-10.39,1.32-34.09,4.18-41.09-5.34-.88-1.19-1.38-2.61-2.09-3.89-.71,0-1.43,2.19-1.82,2.8-3.21,5.11-9.32,6.8-15.06,7.48-8.76,1.04-18.13.05-26.84-1.05l-14.79,7.1L0,108.73l.28,1.38c24.15,19.1,46.69,40.96,63.33,67.04.42.37.27-.27.27-.54.07-2.3,0-4.62,0-6.93.07-18.05-.05-36.1,0-54.15-.27-1.38-5.26-2.5-6.64-2.59-2.81-.18-4.92.5-6.94,2.45l-1.65-19.37c5.31-2,13.2-2.53,16.18,3.35,3.29-6.07,10.77-5.07,16.43-3.52l-1.66,19.09-.37.44c-3.32-3.9-9.24-2.57-13.19-.36.06,18.22-.04,36.44.01,54.66Z"/>
  <g>
    <path class="cls-5" d="M66.05,169.68c-.05-18.21.05-36.44-.01-54.66,3.94-2.21,9.87-3.55,13.19.36l.37-.44,1.66-19.09c-5.67-1.55-13.15-2.55-16.43,3.52-2.98-5.88-10.87-5.35-16.18-3.35l1.65,19.37c2.02-1.95,4.13-2.64,6.94-2.45,1.38.09,6.37,1.21,6.64,2.59-.05,18.05.08,36.11,0,54.15-15.86-23.73-36.96-43.91-59.17-61.68,1.61-24.44,3.53-48.93,5.37-73.38.38-5.1.36-10.31,1.24-15.32l10.88-5.43c10.48,1.15,21.29,2.33,31.69-.1,4.14-.97,8.15-2.6,11.23-5.61,3.12,2.9,7.09,4.63,11.22,5.61,10.32,2.45,21.28,1.22,31.69.09l10.9,5.42,6.68,88.1-.3.81c-21.88,18.27-42.26,38.53-59.23,61.49ZM63.6,49.38v28.23h2.45v-28.23h-2.45ZM44.24,61.71c-1.61-1.01-2.67.38-1.8,1.93,3.44,4.55,6.02,12.05,9.52,16.27.55.66,1.05,1.22,1.94.74.48-.32.6-1.4.32-1.91l-9.99-17.04ZM86.08,61.4c-.39.11-.73.63-.97.96-3.51,4.86-6.08,11.48-9.62,16.45-.82,1.5,1.22,2.82,2.2,1.38l10.09-17.61c-.19-.74-.9-1.39-1.7-1.18ZM55.1,63.3c-.6.18-.84.83-.73,1.41.99,2.02,2.69,12.58,3.91,13.49.99.73,1.89-.18,1.98-1.19-1.35-3.85-1.8-8.75-3.26-12.47-.36-.92-.78-1.58-1.91-1.25ZM71.69,78.12l3.58-12.85c.6-1.8-1.61-2.92-2.36-1.26l-3.31,12.44c-.38,1.56.73,2.46,2.09,1.67ZM90.52,72.06l-11.04,11.03,1.79,1.78,11.04-11.03-1.79-1.78ZM49.41,84.09c.36-.36.49-1.31.08-1.71l-9.24-9.23c-.92-.8-2.34-.55-2.4.79l9.85,10.24c.4.41,1.35.28,1.71-.08ZM45.88,88.71c.82-.78-.27-1.86-.93-2.33-4.76-3.43-11.26-5.94-16.14-9.4-1.64-.68-2.88.62-1.69,2.03l16.94,9.89c.48.27,1.44.17,1.82-.19ZM101.3,76.88l-17.03,9.87c-1.43,1.18-.07,2.97,1.55,2.09l17.15-10.29c.28-1.25-.42-1.93-1.66-1.66ZM29.29,89.09c-.81.23-.99,1.39-.49,2.02l13.53,3.84c1.65-.21,2.03-1.86.42-2.57-1.82-.8-10.48-3.04-12.5-3.27-.34-.04-.6-.12-.95-.02ZM99.41,89.1c-3.85.54-8.48,2.67-12.44,3.33-1.11.27-1.18,1.94-.19,2.39l13.86-3.39c1.33-.76.54-2.59-1.24-2.34ZM20.92,98.28v2.44h21.99v-2.44h-21.99ZM86.95,98.28v2.44h21.79v-2.44h-21.79Z"/>
    <path class="cls-3" d="M63.88,169.68c0,2.3.07,4.62,0,6.93,0,.27.15.92-.27.54C46.96,151.06,24.43,129.21.28,110.11l-.28-1.38L6.86,16.33l14.79-7.1c8.71,1.1,18.08,2.09,26.84,1.05,5.74-.68,11.85-2.37,15.06-7.48.38-.61,1.1-2.8,1.82-2.8.71,1.28,1.21,2.7,2.09,3.89,7,9.52,30.7,6.67,41.09,5.34l14.7,7.32,6.95,92.44-.41,1.24c-23.76,19.77-46.16,41.66-63.61,67.3-.25-2.6-.13-5.26-.13-7.87,16.97-22.96,37.35-43.22,59.23-61.49l.3-.81-6.68-88.1-10.9-5.42c-10.41,1.14-21.37,2.36-31.69-.09-4.13-.98-8.1-2.71-11.22-5.61-3.07,3-7.09,4.64-11.23,5.61-10.4,2.43-21.2,1.25-31.69.1l-10.88,5.43c-.88,5.02-.85,10.22-1.24,15.32-1.85,24.45-3.76,48.94-5.37,73.38,22.21,17.77,43.31,37.95,59.17,61.68Z"/>
    <rect class="cls-1" x="63.6" y="49.38" width="2.45" height="28.23"/>
    <path class="cls-7" d="M86.08,61.4c.8-.22,1.51.43,1.7,1.18l-10.09,17.61c-.97,1.44-3.02.13-2.2-1.38,3.54-4.98,6.11-11.59,9.62-16.45.23-.32.58-.85.97-.96Z"/>
    <path class="cls-7" d="M101.3,76.88c1.24-.27,1.94.42,1.66,1.66l-17.15,10.29c-1.61.89-2.98-.9-1.55-2.09l17.03-9.87Z"/>
    <path class="cls-4" d="M45.88,88.71c-.38.36-1.34.46-1.82.19l-16.94-9.89c-1.19-1.42.06-2.71,1.69-2.03,4.88,3.46,11.38,5.96,16.14,9.4.66.47,1.74,1.55.93,2.33Z"/>
    <path class="cls-4" d="M44.24,61.71l9.99,17.04c.28.5.17,1.58-.32,1.91-.9.48-1.4-.08-1.94-.74-3.5-4.22-6.08-11.73-9.52-16.27-.87-1.55.19-2.94,1.8-1.93Z"/>
    <rect class="cls-2" x="20.92" y="98.28" width="21.99" height="2.44"/>
    <rect class="cls-6" x="86.95" y="98.28" width="21.79" height="2.44"/>
    <path class="cls-7" d="M29.29,89.09c.36-.1.61-.02.95.02,2.02.23,10.68,2.47,12.5,3.27,1.61.71,1.23,2.36-.42,2.57l-13.53-3.84c-.5-.63-.32-1.79.49-2.02Z"/>
    <path class="cls-7" d="M55.1,63.3c1.13-.34,1.55.32,1.91,1.25,1.45,3.72,1.91,8.62,3.26,12.47-.09,1.01-1,1.92-1.98,1.19-1.23-.91-2.92-11.47-3.91-13.49-.11-.58.13-1.24.73-1.41Z"/>
    <path class="cls-7" d="M99.41,89.1c1.78-.25,2.56,1.58,1.24,2.34l-13.86,3.39c-.99-.46-.92-2.12.19-2.39,3.96-.66,8.58-2.8,12.44-3.33Z"/>
    <path class="cls-7" d="M71.69,78.12c-1.35.79-2.47-.11-2.09-1.67l3.31-12.44c.75-1.66,2.96-.53,2.36,1.26l-3.58,12.85Z"/>
    <rect class="cls-7" x="78.08" y="77.2" width="15.61" height="2.52" transform="translate(-30.32 83.77) rotate(-45.03)"/>
    <path class="cls-7" d="M49.41,84.09c-.36.36-1.31.49-1.71.08l-9.85-10.24c.06-1.34,1.48-1.58,2.4-.79l9.24,9.23c.41.4.28,1.35-.08,1.71Z"/>
  </g>
</svg>